SplineFontDB: 3.2
FontName: KannadaPixel
FullName: Kannada Pixel Regular
FamilyName: Kannada Pixel
Weight: Book
Copyright: Shankar Sivarajan
Version: 1.0
ItalicAngle: 0
UnderlinePosition: 0
UnderlineWidth: 0
Ascent: 1024
Descent: 0
InvalidEm: 0
sfntRevision: 0x00010000
LayerCount: 2
Layer: 0 1 "Back" 1
Layer: 1 1 "Fore" 0
XUID: [1021 146 -1796264217 13133]
StyleMap: 0x0040
FSType: 4
OS2Version: 2
OS2_WeightWidthSlopeOnly: 0
OS2_UseTypoMetrics: 0
CreationTime: 1681341061
ModificationTime: 1710906281
PfmFamily: 81
TTFWeight: 400
TTFWidth: 5
LineGap: 102
VLineGap: 0
Panose: 0 0 6 0 0 0 0 0 0 0
OS2TypoAscent: 922
OS2TypoAOffset: 0
OS2TypoDescent: -102
OS2TypoDOffset: 0
OS2TypoLinegap: 102
OS2WinAscent: 922
OS2WinAOffset: 0
OS2WinDescent: 102
OS2WinDOffset: 0
HheadAscent: 922
HheadAOffset: 0
HheadDescent: -102
HheadDOffset: 0
OS2SubXSize: 512
OS2SubYSize: 512
OS2SubXOff: 0
OS2SubYOff: -73
OS2SupXSize: 512
OS2SupYSize: 512
OS2SupXOff: 0
OS2SupYOff: 512
OS2StrikeYSize: 51
OS2StrikeYPos: 204
OS2Vendor: 'PXFG'
OS2CodePages: 00000001.00000000
OS2UnicodeRanges: 00008003.00000000.00000000.00000000
MarkAttachClasses: 1
DEI: 91125
ShortTable: maxp 16
  1
  0
  62
  86
  15
  0
  0
  2
  0
  0
  0
  0
  0
  0
  0
  0
EndShort
LangName: 1033 "" "" "Regular" "KannadaPixel" "" "Version 1.0" "" "" "" "Shankar Sivarajan"
Encoding: Custom
UnicodeInterp: none
NameList: AGL For New Fonts
DisplaySize: -48
AntiAlias: 1
FitToEm: 0
WinInfo: 0 39 14
BeginPrivate: 0
EndPrivate
BeginChars: 83 83

StartChar: .notdef
Encoding: 81 -1 0
Width: 640
GlyphClass: 1
Flags: W
LayerCount: 2
Fore
SplineSet
128 768 m 1,0,-1
 128 896 l 1,1,-1
 384 896 l 1,2,-1
 384 768 l 1,3,-1
 128 768 l 1,0,-1
128 0 m 1,4,-1
 128 128 l 1,5,-1
 384 128 l 1,6,-1
 384 0 l 1,7,-1
 128 0 l 1,4,-1
384 0 m 1,8,-1
 512 0 l 1,9,-1
 512 896 l 1,10,-1
 384 896 l 1,11,-1
 384 0 l 1,8,-1
0 0 m 1,12,-1
 0 896 l 1,13,-1
 128 896 l 1,14,-1
 128 0 l 1,15,-1
 0 0 l 1,12,-1
EndSplineSet
EndChar

StartChar: uni0C85
Encoding: 4 3205 3
Width: 1024
Flags: W
LayerCount: 2
Fore
SplineSet
0 256 m 1,0,-1
 0 384 l 1,1,-1
 0 512 l 1,2,-1
 0 640 l 1,3,-1
 0 768 l 1,4,-1
 128 768 l 1,5,-1
 128 640 l 1,6,-1
 128 512 l 1,7,-1
 128 384 l 1,8,-1
 128 256 l 1,9,-1
 0 256 l 1,0,-1
128 128 m 1,10,-1
 128 256 l 1,11,-1
 256 256 l 1,12,-1
 256 128 l 1,13,-1
 128 128 l 1,10,-1
128 768 m 1,14,-1
 128 896 l 1,15,-1
 256 896 l 1,16,-1
 256 768 l 1,17,-1
 128 768 l 1,14,-1
256 0 m 1,18,-1
 256 128 l 1,19,-1
 384 128 l 1,20,-1
 512 128 l 1,21,-1
 640 128 l 1,22,-1
 640 0 l 1,23,-1
 512 0 l 1,24,-1
 384 0 l 1,25,-1
 256 0 l 1,18,-1
256 640 m 1,26,-1
 256 768 l 1,27,-1
 384 768 l 1,28,-1
 384 640 l 1,29,-1
 256 640 l 1,26,-1
384 384 m 1,30,-1
 384 512 l 1,31,-1
 512 512 l 1,32,-1
 512 640 l 1,33,-1
 640 640 l 1,34,-1
 640 512 l 1,35,-1
 640 384 l 1,36,-1
 512 384 l 1,37,-1
 384 384 l 1,30,-1
640 128 m 1,38,-1
 640 256 l 1,39,-1
 768 256 l 1,40,-1
 768 128 l 1,41,-1
 640 128 l 1,38,-1
640 640 m 1,42,-1
 640 768 l 1,43,-1
 768 768 l 1,44,-1
 768 640 l 1,45,-1
 640 640 l 1,42,-1
768 256 m 1,46,-1
 768 384 l 1,47,-1
 768 512 l 1,48,-1
 768 640 l 1,49,-1
 896 640 l 1,50,-1
 896 512 l 1,51,-1
 896 384 l 1,52,-1
 896 256 l 1,53,-1
 768 256 l 1,46,-1
EndSplineSet
EndChar

StartChar: uni0C86
Encoding: 5 3206 4
Width: 1152
Flags: W
LayerCount: 2
Fore
SplineSet
0 256 m 5,0,-1
 0 384 l 5,1,-1
 0 512 l 5,2,-1
 0 640 l 5,3,-1
 0 768 l 5,4,-1
 128 768 l 5,5,-1
 128 640 l 5,6,-1
 128 512 l 5,7,-1
 128 384 l 5,8,-1
 128 256 l 5,9,-1
 0 256 l 5,0,-1
128 128 m 5,10,-1
 128 256 l 5,11,-1
 256 256 l 5,12,-1
 256 128 l 5,13,-1
 128 128 l 5,10,-1
128 768 m 5,14,-1
 128 896 l 5,15,-1
 256 896 l 5,16,-1
 256 768 l 5,17,-1
 128 768 l 5,14,-1
256 0 m 5,18,-1
 256 128 l 5,19,-1
 384 128 l 5,20,-1
 512 128 l 5,21,-1
 640 128 l 5,22,-1
 640 0 l 5,23,-1
 512 0 l 5,24,-1
 384 0 l 5,25,-1
 256 0 l 5,18,-1
256 640 m 5,26,-1
 256 768 l 5,27,-1
 384 768 l 5,28,-1
 384 640 l 5,29,-1
 256 640 l 5,26,-1
384 384 m 5,30,-1
 384 512 l 5,31,-1
 512 512 l 5,32,-1
 640 512 l 5,33,-1
 640 384 l 5,34,-1
 512 384 l 5,35,-1
 384 384 l 5,30,-1
640 128 m 5,36,-1
 640 256 l 5,37,-1
 768 256 l 5,38,-1
 768 128 l 5,39,-1
 640 128 l 5,36,-1
640 512 m 5,40,-1
 640 640 l 5,41,-1
 768 640 l 5,42,-1
 768 512 l 5,43,-1
 640 512 l 5,40,-1
768 256 m 5,44,-1
 768 384 l 5,45,-1
 768 512 l 5,46,-1
 896 512 l 5,47,-1
 896 384 l 5,48,-1
 896 256 l 5,49,-1
 768 256 l 5,44,-1
768 640 m 5,50,-1
 768 768 l 5,51,-1
 896 768 l 5,52,-1
 896 640 l 5,53,-1
 768 640 l 5,50,-1
896 512 m 5,54,-1
 896 640 l 5,55,-1
 1024 640 l 5,56,-1
 1024 512 l 5,57,-1
 896 512 l 5,54,-1
EndSplineSet
EndChar

StartChar: uni0C87
Encoding: 6 3207 5
Width: 1024
LayerCount: 2
Fore
SplineSet
0 128 m 5,0,-1
 0 256 l 5,1,-1
 128 256 l 5,2,-1
 128 128 l 5,3,-1
 0 128 l 5,0,-1
0 512 m 5,4,-1
 0 640 l 5,5,-1
 0 768 l 5,6,-1
 128 768 l 5,7,-1
 128 640 l 5,8,-1
 128 512 l 5,9,-1
 0 512 l 5,4,-1
128 0 m 5,10,-1
 128 128 l 5,11,-1
 256 128 l 5,12,-1
 384 128 l 5,13,-1
 384 0 l 5,14,-1
 256 0 l 5,15,-1
 128 0 l 5,10,-1
128 256 m 5,16,-1
 128 384 l 5,17,-1
 256 384 l 5,18,-1
 384 384 l 5,19,-1
 384 256 l 5,20,-1
 256 256 l 5,21,-1
 128 256 l 5,16,-1
128 768 m 5,22,-1
 128 896 l 5,23,-1
 256 896 l 5,24,-1
 384 896 l 5,25,-1
 384 768 l 5,26,-1
 256 768 l 5,27,-1
 128 768 l 5,22,-1
384 128 m 5,28,-1
 384 256 l 5,29,-1
 512 256 l 5,30,-1
 512 128 l 5,31,-1
 384 128 l 5,28,-1
384 640 m 5,32,-1
 384 768 l 5,33,-1
 512 768 l 5,34,-1
 512 640 l 5,35,-1
 384 640 l 5,32,-1
512 0 m 5,36,-1
 512 128 l 5,37,-1
 640 128 l 5,38,-1
 640 0 l 5,39,-1
 512 0 l 5,36,-1
512 768 m 5,40,-1
 512 896 l 5,41,-1
 640 896 l 5,42,-1
 768 896 l 5,43,-1
 768 768 l 5,44,-1
 640 768 l 5,45,-1
 512 768 l 5,40,-1
640 -128 m 5,46,-1
 640 0 l 5,47,-1
 768 0 l 5,48,-1
 896 0 l 5,49,-1
 896 -128 l 5,50,-1
 768 -128 l 5,51,-1
 640 -128 l 5,46,-1
640 128 m 5,52,-1
 640 256 l 5,53,-1
 768 256 l 5,54,-1
 768 128 l 5,55,-1
 640 128 l 5,52,-1
768 256 m 5,56,-1
 768 384 l 5,57,-1
 768 512 l 5,58,-1
 768 640 l 5,59,-1
 768 768 l 5,60,-1
 896 768 l 5,61,-1
 896 640 l 5,62,-1
 896 512 l 5,63,-1
 896 384 l 5,64,-1
 896 256 l 5,65,-1
 768 256 l 5,56,-1
EndSplineSet
EndChar

StartChar: uni0C88
Encoding: 7 3208 6
Width: 1408
Flags: W
LayerCount: 2
Fore
SplineSet
0 256 m 5,0,-1
 0 384 l 5,1,-1
 128 384 l 5,2,-1
 128 512 l 5,3,-1
 256 512 l 5,4,-1
 256 384 l 5,5,-1
 384 384 l 5,6,-1
 512 384 l 5,7,-1
 640 384 l 5,8,-1
 768 384 l 5,9,-1
 768 512 l 5,10,-1
 768 640 l 5,11,-1
 896 640 l 5,12,-1
 896 512 l 5,13,-1
 896 384 l 5,14,-1
 1024 384 l 5,15,-1
 1024 256 l 5,16,-1
 896 256 l 5,17,-1
 896 128 l 5,18,-1
 768 128 l 5,19,-1
 768 256 l 5,20,-1
 640 256 l 5,21,-1
 512 256 l 5,22,-1
 384 256 l 5,23,-1
 256 256 l 5,24,-1
 256 128 l 5,25,-1
 128 128 l 5,26,-1
 128 256 l 5,27,-1
 0 256 l 5,0,-1
256 0 m 5,28,-1
 256 128 l 5,29,-1
 384 128 l 5,30,-1
 512 128 l 5,31,-1
 640 128 l 5,32,-1
 768 128 l 5,33,-1
 768 0 l 5,34,-1
 640 0 l 5,35,-1
 512 0 l 5,36,-1
 384 0 l 5,37,-1
 256 0 l 5,28,-1
256 512 m 5,38,-1
 256 640 l 5,39,-1
 384 640 l 5,40,-1
 384 512 l 5,41,-1
 256 512 l 5,38,-1
384 640 m 5,42,-1
 384 768 l 5,43,-1
 512 768 l 5,44,-1
 640 768 l 5,45,-1
 768 768 l 5,46,-1
 768 640 l 5,47,-1
 640 640 l 5,48,-1
 512 640 l 5,49,-1
 384 640 l 5,42,-1
768 768 m 5,50,-1
 768 896 l 5,51,-1
 896 896 l 5,52,-1
 896 768 l 5,53,-1
 768 768 l 5,50,-1
1024 384 m 5,54,-1
 1024 512 l 5,55,-1
 1152 512 l 5,56,-1
 1152 384 l 5,57,-1
 1024 384 l 5,54,-1
1152 128 m 5,58,-1
 1152 256 l 5,59,-1
 1152 384 l 5,60,-1
 1281 384 l 5,61,-1
 1281 256 l 5,62,-1
 1281 128 l 5,63,-1
 1152 128 l 5,58,-1
EndSplineSet
EndChar

StartChar: uni0C89
Encoding: 8 3209 7
Width: 1408
Flags: W
LayerCount: 2
Fore
SplineSet
0 256 m 5,0,-1
 0 384 l 5,1,-1
 0 512 l 5,2,-1
 0 640 l 5,3,-1
 0 768 l 5,4,-1
 128 768 l 5,5,-1
 128 640 l 5,6,-1
 128 512 l 5,7,-1
 128 384 l 5,8,-1
 128 256 l 5,9,-1
 0 256 l 5,0,-1
128 128 m 5,10,-1
 128 256 l 5,11,-1
 256 256 l 5,12,-1
 256 128 l 5,13,-1
 128 128 l 5,10,-1
128 768 m 5,14,-1
 128 896 l 5,15,-1
 256 896 l 5,16,-1
 256 768 l 5,17,-1
 128 768 l 5,14,-1
256 0 m 5,18,-1
 256 128 l 5,19,-1
 384 128 l 5,20,-1
 512 128 l 5,21,-1
 512 0 l 5,22,-1
 384 0 l 5,23,-1
 256 0 l 5,18,-1
256 640 m 5,24,-1
 256 768 l 5,25,-1
 384 768 l 5,26,-1
 384 640 l 5,27,-1
 256 640 l 5,24,-1
512 128 m 5,28,-1
 512 256 l 5,29,-1
 512 384 l 5,30,-1
 512 512 l 5,31,-1
 512 640 l 5,32,-1
 640 640 l 5,33,-1
 640 512 l 5,34,-1
 640 384 l 5,35,-1
 640 256 l 5,36,-1
 640 128 l 5,37,-1
 512 128 l 5,28,-1
640 640 m 5,38,-1
 640 768 l 5,39,-1
 768 768 l 5,40,-1
 768 640 l 5,41,-1
 640 640 l 5,38,-1
768 128 m 5,42,-1
 768 256 l 5,43,-1
 768 384 l 5,44,-1
 768 512 l 5,45,-1
 768 640 l 5,46,-1
 896 640 l 5,47,-1
 896 512 l 5,48,-1
 896 384 l 5,49,-1
 896 256 l 5,50,-1
 896 128 l 5,51,-1
 768 128 l 5,42,-1
896 0 m 5,52,-1
 896 128 l 5,53,-1
 1024 128 l 5,54,-1
 1152 128 l 5,55,-1
 1152 0 l 5,56,-1
 1024 0 l 5,57,-1
 896 0 l 5,52,-1
1024 640 m 5,58,-1
 1024 768 l 5,59,-1
 1152 768 l 5,60,-1
 1152 640 l 5,61,-1
 1024 640 l 5,58,-1
1152 128 m 5,62,-1
 1152 256 l 5,63,-1
 1152 384 l 5,64,-1
 1152 512 l 5,65,-1
 1152 640 l 5,66,-1
 1281 640 l 5,67,-1
 1281 512 l 5,68,-1
 1281 384 l 5,69,-1
 1281 256 l 5,70,-1
 1281 128 l 5,71,-1
 1152 128 l 5,62,-1
EndSplineSet
EndChar

StartChar: uni0C8A
Encoding: 9 3210 8
Width: 1664
Flags: W
LayerCount: 2
Fore
SplineSet
0 256 m 5,0,-1
 0 384 l 5,1,-1
 0 512 l 5,2,-1
 0 640 l 5,3,-1
 0 768 l 5,4,-1
 128 768 l 5,5,-1
 128 640 l 5,6,-1
 128 512 l 5,7,-1
 128 384 l 5,8,-1
 128 256 l 5,9,-1
 0 256 l 5,0,-1
128 128 m 5,10,-1
 128 256 l 5,11,-1
 256 256 l 5,12,-1
 256 128 l 5,13,-1
 128 128 l 5,10,-1
128 768 m 5,14,-1
 128 896 l 5,15,-1
 256 896 l 5,16,-1
 256 768 l 5,17,-1
 128 768 l 5,14,-1
256 0 m 5,18,-1
 256 128 l 5,19,-1
 384 128 l 5,20,-1
 512 128 l 5,21,-1
 512 0 l 5,22,-1
 384 0 l 5,23,-1
 256 0 l 5,18,-1
256 640 m 5,24,-1
 256 768 l 5,25,-1
 384 768 l 5,26,-1
 384 640 l 5,27,-1
 256 640 l 5,24,-1
512 128 m 5,28,-1
 512 256 l 5,29,-1
 512 384 l 5,30,-1
 512 512 l 5,31,-1
 512 640 l 5,32,-1
 640 640 l 5,33,-1
 640 512 l 5,34,-1
 640 384 l 5,35,-1
 640 256 l 5,36,-1
 640 128 l 5,37,-1
 512 128 l 5,28,-1
640 640 m 5,38,-1
 640 768 l 5,39,-1
 768 768 l 5,40,-1
 768 640 l 5,41,-1
 640 640 l 5,38,-1
768 128 m 5,42,-1
 768 256 l 5,43,-1
 768 384 l 5,44,-1
 768 512 l 5,45,-1
 768 640 l 5,46,-1
 896 640 l 5,47,-1
 896 512 l 5,48,-1
 896 384 l 5,49,-1
 896 256 l 5,50,-1
 896 128 l 5,51,-1
 768 128 l 5,42,-1
896 0 m 5,52,-1
 896 128 l 5,53,-1
 1024 128 l 5,54,-1
 1024 0 l 5,55,-1
 896 0 l 5,52,-1
1024 128 m 5,56,-1
 1024 256 l 5,57,-1
 1024 384 l 5,58,-1
 1024 512 l 5,59,-1
 1024 640 l 5,60,-1
 1152 640 l 5,61,-1
 1152 512 l 5,62,-1
 1152 384 l 5,63,-1
 1152 256 l 5,64,-1
 1152 128 l 5,65,-1
 1024 128 l 5,56,-1
1152 640 m 5,66,-1
 1152 768 l 5,67,-1
 1281 768 l 5,68,-1
 1408 768 l 5,69,-1
 1408 640 l 5,70,-1
 1281 640 l 5,71,-1
 1152 640 l 5,66,-1
1281 0 m 5,72,-1
 1281 128 l 5,73,-1
 1408 128 l 5,74,-1
 1408 0 l 5,75,-1
 1281 0 l 5,72,-1
1408 128 m 5,76,-1
 1408 256 l 5,77,-1
 1408 384 l 5,78,-1
 1408 512 l 5,79,-1
 1408 640 l 5,80,-1
 1536 640 l 5,81,-1
 1536 512 l 5,82,-1
 1536 384 l 5,83,-1
 1536 256 l 5,84,-1
 1536 128 l 5,85,-1
 1408 128 l 5,76,-1
EndSplineSet
EndChar

StartChar: uni0C8B
Encoding: 10 3211 9
Width: 1280
Flags: W
LayerCount: 2
Fore
SplineSet
0 128 m 1,0,-1
 0 256 l 1,1,-1
 128 256 l 1,2,-1
 128 128 l 1,3,-1
 0 128 l 1,0,-1
0 640 m 1,4,-1
 0 768 l 1,5,-1
 128 768 l 1,6,-1
 128 640 l 1,7,-1
 0 640 l 1,4,-1
128 0 m 1,8,-1
 128 128 l 1,9,-1
 256 128 l 1,10,-1
 256 0 l 1,11,-1
 128 0 l 1,8,-1
128 768 m 1,12,-1
 128 896 l 1,13,-1
 256 896 l 1,14,-1
 256 768 l 1,15,-1
 128 768 l 1,12,-1
256 128 m 1,16,-1
 256 256 l 1,17,-1
 256 384 l 1,18,-1
 256 512 l 1,19,-1
 256 640 l 1,20,-1
 256 768 l 1,21,-1
 384 768 l 1,22,-1
 384 640 l 1,23,-1
 384 512 l 1,24,-1
 384 384 l 1,25,-1
 384 256 l 1,26,-1
 384 128 l 1,27,-1
 256 128 l 1,16,-1
384 0 m 1,28,-1
 384 128 l 1,29,-1
 512 128 l 1,30,-1
 640 128 l 1,31,-1
 640 0 l 1,32,-1
 512 0 l 1,33,-1
 384 0 l 1,28,-1
512 640 m 1,34,-1
 512 768 l 1,35,-1
 640 768 l 1,36,-1
 640 640 l 1,37,-1
 512 640 l 1,34,-1
640 128 m 1,38,-1
 640 256 l 1,39,-1
 640 384 l 1,40,-1
 640 512 l 1,41,-1
 640 640 l 1,42,-1
 768 640 l 1,43,-1
 768 512 l 1,44,-1
 768 384 l 1,45,-1
 768 256 l 1,46,-1
 768 128 l 1,47,-1
 640 128 l 1,38,-1
640 768 m 1,48,-1
 640 896 l 5,49,-1
 768 896 l 1,50,-1
 768 768 l 1,51,-1
 640 768 l 1,48,-1
768 0 m 1,52,-1
 768 128 l 1,53,-1
 896 128 l 1,54,-1
 1024 128 l 1,55,-1
 1024 0 l 1,56,-1
 896 0 l 1,57,-1
 768 0 l 1,52,-1
896 640 m 1,58,-1
 896 768 l 1,59,-1
 1024 768 l 1,60,-1
 1024 640 l 1,61,-1
 896 640 l 1,58,-1
1024 128 m 1,62,-1
 1024 256 l 1,63,-1
 1024 384 l 1,64,-1
 1024 512 l 1,65,-1
 1024 640 l 1,66,-1
 1152 640 l 1,67,-1
 1152 512 l 1,68,-1
 1152 384 l 1,69,-1
 1152 256 l 1,70,-1
 1152 128 l 1,71,-1
 1024 128 l 1,62,-1
EndSplineSet
EndChar

StartChar: uni0C8C
Encoding: 11 3212 10
Width: 1024
LayerCount: 2
Fore
SplineSet
0 512 m 5,0,-1
 0 640 l 5,1,-1
 0 768 l 5,2,-1
 128 768 l 5,3,-1
 128 640 l 5,4,-1
 128 512 l 5,5,-1
 0 512 l 5,0,-1
128 768 m 5,6,-1
 128 896 l 5,7,-1
 256 896 l 5,8,-1
 384 896 l 5,9,-1
 384 768 l 5,10,-1
 256 768 l 5,11,-1
 128 768 l 5,6,-1
384 0 m 5,12,-1
 384 128 l 5,13,-1
 384 256 l 5,14,-1
 512 256 l 5,15,-1
 512 128 l 5,16,-1
 512 0 l 5,17,-1
 384 0 l 5,12,-1
384 512 m 5,18,-1
 384 640 l 5,19,-1
 384 768 l 5,20,-1
 512 768 l 5,21,-1
 512 640 l 5,22,-1
 512 512 l 5,23,-1
 384 512 l 5,18,-1
512 -128 m 5,24,-1
 512 0 l 5,25,-1
 640 0 l 5,26,-1
 768 0 l 5,27,-1
 768 -128 l 5,28,-1
 640 -128 l 5,29,-1
 512 -128 l 5,24,-1
512 256 m 5,30,-1
 512 384 l 5,31,-1
 640 384 l 5,32,-1
 768 384 l 5,33,-1
 768 256 l 5,34,-1
 640 256 l 5,35,-1
 512 256 l 5,30,-1
512 768 m 5,36,-1
 512 896 l 5,37,-1
 640 896 l 5,38,-1
 768 896 l 5,39,-1
 768 768 l 5,40,-1
 640 768 l 5,41,-1
 512 768 l 5,36,-1
768 0 m 5,42,-1
 768 128 l 5,43,-1
 896 128 l 5,44,-1
 896 0 l 5,45,-1
 768 0 l 5,42,-1
768 384 m 5,46,-1
 768 512 l 5,47,-1
 768 640 l 5,48,-1
 768 768 l 5,49,-1
 896 768 l 5,50,-1
 896 640 l 5,51,-1
 896 512 l 5,52,-1
 896 384 l 5,53,-1
 768 384 l 5,46,-1
EndSplineSet
EndChar

StartChar: uni0C8E
Encoding: 12 3214 11
Width: 1024
LayerCount: 2
Fore
SplineSet
0 128 m 5,0,-1
 0 256 l 5,1,-1
 0 384 l 5,2,-1
 128 384 l 5,3,-1
 128 256 l 5,4,-1
 128 128 l 5,5,-1
 0 128 l 5,0,-1
128 0 m 5,6,-1
 128 128 l 5,7,-1
 256 128 l 5,8,-1
 384 128 l 5,9,-1
 384 0 l 5,10,-1
 256 0 l 5,11,-1
 128 0 l 5,6,-1
128 384 m 5,12,-1
 128 512 l 5,13,-1
 256 512 l 5,14,-1
 256 384 l 5,15,-1
 128 384 l 5,12,-1
256 640 m 5,16,-1
 256 768 l 5,17,-1
 384 768 l 5,18,-1
 512 768 l 5,19,-1
 640 768 l 5,20,-1
 768 768 l 5,21,-1
 768 640 l 5,22,-1
 640 640 l 5,23,-1
 512 640 l 5,24,-1
 384 640 l 5,25,-1
 256 640 l 5,16,-1
384 128 m 5,26,-1
 384 256 l 5,27,-1
 512 256 l 5,28,-1
 512 128 l 5,29,-1
 384 128 l 5,26,-1
512 0 m 5,30,-1
 512 128 l 5,31,-1
 640 128 l 5,32,-1
 768 128 l 5,33,-1
 768 0 l 5,34,-1
 640 0 l 5,35,-1
 512 0 l 5,30,-1
768 128 m 5,36,-1
 768 256 l 5,37,-1
 768 384 l 5,38,-1
 768 512 l 5,39,-1
 768 640 l 5,40,-1
 896 640 l 5,41,-1
 896 512 l 5,42,-1
 896 384 l 5,43,-1
 896 256 l 5,44,-1
 896 128 l 5,45,-1
 768 128 l 5,36,-1
EndSplineSet
EndChar

StartChar: uni0C8F
Encoding: 13 3215 12
Width: 1024
LayerCount: 2
Fore
SplineSet
0 128 m 1,0,-1
 0 256 l 1,1,-1
 0 384 l 1,2,-1
 128 384 l 1,3,-1
 128 256 l 1,4,-1
 128 128 l 1,5,-1
 0 128 l 1,0,-1
128 0 m 1,6,-1
 128 128 l 1,7,-1
 256 128 l 1,8,-1
 384 128 l 1,9,-1
 384 0 l 1,10,-1
 256 0 l 1,11,-1
 128 0 l 1,6,-1
128 384 m 1,12,-1
 128 512 l 1,13,-1
 256 512 l 1,14,-1
 256 384 l 1,15,-1
 128 384 l 1,12,-1
256 768 m 1,16,-1
 256 896 l 1,17,-1
 384 896 l 1,18,-1
 384 768 l 1,19,-1
 256 768 l 1,16,-1
384 128 m 1,20,-1
 384 256 l 1,21,-1
 512 256 l 1,22,-1
 512 128 l 1,23,-1
 384 128 l 1,20,-1
384 640 m 1,24,-1
 384 768 l 1,25,-1
 512 768 l 1,26,-1
 640 768 l 1,27,-1
 768 768 l 1,28,-1
 768 640 l 1,29,-1
 640 640 l 1,30,-1
 512 640 l 1,31,-1
 384 640 l 1,24,-1
512 0 m 1,32,-1
 512 128 l 1,33,-1
 640 128 l 1,34,-1
 768 128 l 1,35,-1
 768 0 l 1,36,-1
 640 0 l 1,37,-1
 512 0 l 1,32,-1
768 128 m 1,38,-1
 768 256 l 1,39,-1
 768 384 l 1,40,-1
 768 512 l 1,41,-1
 768 640 l 1,42,-1
 896 640 l 1,43,-1
 896 512 l 1,44,-1
 896 384 l 1,45,-1
 896 256 l 1,46,-1
 896 128 l 1,47,-1
 768 128 l 1,38,-1
EndSplineSet
EndChar

StartChar: uni0C90
Encoding: 14 3216 13
Width: 1024
LayerCount: 2
Fore
SplineSet
0 128 m 5,0,-1
 0 256 l 5,1,-1
 0 384 l 5,2,-1
 128 384 l 5,3,-1
 128 256 l 5,4,-1
 128 128 l 5,5,-1
 0 128 l 5,0,-1
0 640 m 5,6,-1
 0 768 l 5,7,-1
 128 768 l 5,8,-1
 128 640 l 5,9,-1
 0 640 l 5,6,-1
128 0 m 5,10,-1
 128 128 l 5,11,-1
 256 128 l 5,12,-1
 384 128 l 5,13,-1
 384 0 l 5,14,-1
 256 0 l 5,15,-1
 128 0 l 5,10,-1
128 384 m 5,16,-1
 128 512 l 5,17,-1
 256 512 l 5,18,-1
 256 384 l 5,19,-1
 128 384 l 5,16,-1
128 768 m 5,20,-1
 128 896 l 5,21,-1
 256 896 l 5,22,-1
 384 896 l 5,23,-1
 384 768 l 5,24,-1
 256 768 l 5,25,-1
 128 768 l 5,20,-1
384 128 m 5,26,-1
 384 256 l 5,27,-1
 512 256 l 5,28,-1
 512 128 l 5,29,-1
 384 128 l 5,26,-1
384 640 m 5,30,-1
 384 768 l 5,31,-1
 512 768 l 5,32,-1
 512 640 l 5,33,-1
 384 640 l 5,30,-1
512 0 m 5,34,-1
 512 128 l 5,35,-1
 640 128 l 5,36,-1
 768 128 l 5,37,-1
 768 0 l 5,38,-1
 640 0 l 5,39,-1
 512 0 l 5,34,-1
512 768 m 5,40,-1
 512 896 l 5,41,-1
 640 896 l 5,42,-1
 768 896 l 5,43,-1
 768 768 l 5,44,-1
 640 768 l 5,45,-1
 512 768 l 5,40,-1
768 128 m 5,46,-1
 768 256 l 5,47,-1
 768 384 l 5,48,-1
 768 512 l 5,49,-1
 768 640 l 5,50,-1
 768 768 l 5,51,-1
 896 768 l 5,52,-1
 896 640 l 5,53,-1
 896 512 l 5,54,-1
 896 384 l 5,55,-1
 896 256 l 5,56,-1
 896 128 l 5,57,-1
 768 128 l 5,46,-1
EndSplineSet
EndChar

StartChar: uni0C92
Encoding: 15 3218 14
Width: 1024
Flags: W
LayerCount: 2
Fore
SplineSet
0 640 m 5,0,-1
 0 768 l 5,1,-1
 128 768 l 5,2,-1
 128 640 l 5,3,-1
 0 640 l 5,0,-1
128 768 m 5,4,-1
 128 896 l 5,5,-1
 256 896 l 5,6,-1
 256 768 l 5,7,-1
 128 768 l 5,4,-1
256 128 m 5,8,-1
 256 256 l 5,9,-1
 256 384 l 5,10,-1
 256 512 l 5,11,-1
 256 640 l 5,12,-1
 256 768 l 5,13,-1
 384 768 l 5,14,-1
 384 640 l 5,15,-1
 384 512 l 5,16,-1
 384 384 l 5,17,-1
 384 256 l 5,18,-1
 384 128 l 5,19,-1
 256 128 l 5,8,-1
384 0 m 5,20,-1
 384 128 l 5,21,-1
 512 128 l 5,22,-1
 512 0 l 5,23,-1
 384 0 l 5,20,-1
512 128 m 5,24,-1
 512 256 l 5,25,-1
 640 256 l 5,26,-1
 640 128 l 5,27,-1
 512 128 l 5,24,-1
640 0 m 5,28,-1
 640 128 l 5,29,-1
 768 128 l 5,30,-1
 768 0 l 5,31,-1
 640 0 l 5,28,-1
768 128 m 5,32,-1
 768 256 l 5,33,-1
 768 384 l 5,34,-1
 896 384 l 5,35,-1
 896 256 l 5,36,-1
 896 128 l 5,37,-1
 768 128 l 5,32,-1
EndSplineSet
EndChar

StartChar: uni0C93
Encoding: 16 3219 15
Width: 1024
LayerCount: 2
Fore
SplineSet
0 640 m 5,0,-1
 0 768 l 5,1,-1
 128 768 l 5,2,-1
 128 640 l 5,3,-1
 0 640 l 5,0,-1
128 768 m 5,4,-1
 128 896 l 5,5,-1
 128 1024 l 5,6,-1
 256 1024 l 5,7,-1
 256 896 l 5,8,-1
 256 768 l 5,9,-1
 128 768 l 5,4,-1
256 128 m 5,10,-1
 256 256 l 5,11,-1
 256 384 l 5,12,-1
 256 512 l 5,13,-1
 256 640 l 5,14,-1
 256 768 l 5,15,-1
 384 768 l 5,16,-1
 384 640 l 5,17,-1
 384 512 l 5,18,-1
 384 384 l 5,19,-1
 384 256 l 5,20,-1
 384 128 l 5,21,-1
 256 128 l 5,10,-1
384 0 m 5,22,-1
 384 128 l 5,23,-1
 512 128 l 5,24,-1
 512 0 l 5,25,-1
 384 0 l 5,22,-1
512 128 m 5,26,-1
 512 256 l 5,27,-1
 640 256 l 5,28,-1
 640 128 l 5,29,-1
 512 128 l 5,26,-1
640 0 m 5,30,-1
 640 128 l 5,31,-1
 768 128 l 5,32,-1
 768 0 l 5,33,-1
 640 0 l 5,30,-1
768 128 m 5,34,-1
 768 256 l 5,35,-1
 768 384 l 5,36,-1
 896 384 l 5,37,-1
 896 256 l 5,38,-1
 896 128 l 5,39,-1
 768 128 l 5,34,-1
EndSplineSet
EndChar

StartChar: uni0C94
Encoding: 17 3220 16
Width: 1023
VWidth: 1280
Flags: W
LayerCount: 2
Fore
SplineSet
0 640 m 1,0,-1
 128 640 l 1,1,-1
 128 768 l 1,2,-1
 0 768 l 1,3,-1
 0 640 l 1,0,-1
128 768 m 1,4,-1
 256 768 l 1,5,-1
 256 896 l 1,6,-1
 128 896 l 1,7,-1
 128 768 l 1,4,-1
256 128 m 1,8,-1
 384 128 l 1,9,-1
 384 256 l 1,10,-1
 384 384 l 1,11,-1
 384 512 l 1,12,-1
 384 640 l 1,13,-1
 384 768 l 1,14,-1
 256 768 l 1,15,-1
 256 640 l 1,16,-1
 256 512 l 1,17,-1
 256 384 l 1,18,-1
 256 256 l 1,19,-1
 256 128 l 1,8,-1
256 896 m 1,20,-1
 384 896 l 1,21,-1
 512 896 l 1,22,-1
 640 896 l 1,23,-1
 768 896 l 1,24,-1
 768 1024 l 1,25,-1
 640 1024 l 1,26,-1
 512 1024 l 1,27,-1
 384 1024 l 1,28,-1
 256 1024 l 1,29,-1
 256 896 l 1,20,-1
384 0 m 1,30,-1
 512 0 l 1,31,-1
 512 128 l 1,32,-1
 384 128 l 1,33,-1
 384 0 l 1,30,-1
512 128 m 1,34,-1
 640 128 l 1,35,-1
 640 256 l 1,36,-1
 512 256 l 1,37,-1
 512 128 l 1,34,-1
640 0 m 1,38,-1
 768 0 l 1,39,-1
 768 128 l 1,40,-1
 640 128 l 1,41,-1
 640 0 l 1,38,-1
640 512 m 1,42,-1
 768 512 l 1,43,-1
 768 640 l 1,44,-1
 640 640 l 1,45,-1
 640 512 l 1,42,-1
768 128 m 1,46,-1
 896 128 l 1,47,-1
 896 256 l 1,48,-1
 896 384 l 1,49,-1
 768 384 l 1,50,-1
 768 256 l 1,51,-1
 768 128 l 1,46,-1
768 640 m 1,52,-1
 896 640 l 1,53,-1
 896 768 l 1,54,-1
 896 896 l 1,55,-1
 768 896 l 1,56,-1
 768 768 l 1,57,-1
 768 640 l 1,52,-1
EndSplineSet
EndChar

StartChar: uni0C95
Encoding: 18 3221 17
Width: 768
Flags: W
LayerCount: 2
Fore
SplineSet
0 128 m 1,0,-1
 0 256 l 1,1,-1
 0 384 l 1,2,-1
 128 384 l 1,3,-1
 128 256 l 1,4,-1
 128 128 l 1,5,-1
 0 128 l 1,0,-1
128 0 m 1,6,-1
 128 128 l 1,7,-1
 256 128 l 1,8,-1
 385 128 l 1,9,-1
 513 128 l 1,10,-1
 513 0 l 1,11,-1
 385 0 l 1,12,-1
 256 0 l 1,13,-1
 128 0 l 1,6,-1
128 384 m 1,14,-1
 128 512 l 1,15,-1
 256 512 l 1,16,-1
 256 640 l 1,17,-1
 128 640 l 1,18,-1
 128 768 l 1,19,-1
 256 768 l 1,20,-1
 385 768 l 1,21,-1
 513 768 l 1,22,-1
 513 640 l 1,23,-1
 385 640 l 1,24,-1
 385 512 l 1,25,-1
 513 512 l 1,26,-1
 513 384 l 1,27,-1
 385 384 l 1,28,-1
 256 384 l 1,29,-1
 128 384 l 1,14,-1
513 128 m 1,30,-1
 513 256 l 1,31,-1
 513 384 l 1,32,-1
 640 384 l 1,33,-1
 640 256 l 1,34,-1
 640 128 l 1,35,-1
 513 128 l 1,30,-1
513 768 m 1,36,-1
 513 896 l 1,37,-1
 640 896 l 1,38,-1
 640 768 l 1,39,-1
 513 768 l 1,36,-1
EndSplineSet
EndChar

StartChar: uni0C96
Encoding: 19 3222 18
Width: 1024
LayerCount: 2
Fore
SplineSet
0 128 m 5,0,-1
 0 256 l 5,1,-1
 128 256 l 5,2,-1
 128 128 l 5,3,-1
 0 128 l 5,0,-1
0 640 m 5,4,-1
 0 768 l 5,5,-1
 128 768 l 5,6,-1
 128 640 l 5,7,-1
 0 640 l 5,4,-1
128 0 m 5,8,-1
 128 128 l 5,9,-1
 256 128 l 5,10,-1
 256 0 l 5,11,-1
 128 0 l 5,8,-1
128 256 m 5,12,-1
 128 384 l 5,13,-1
 256 384 l 5,14,-1
 256 256 l 5,15,-1
 128 256 l 5,12,-1
128 768 m 5,16,-1
 128 896 l 5,17,-1
 256 896 l 5,18,-1
 256 768 l 5,19,-1
 128 768 l 5,16,-1
256 128 m 5,20,-1
 256 256 l 5,21,-1
 384 256 l 5,22,-1
 384 128 l 5,23,-1
 256 128 l 5,20,-1
256 640 m 5,24,-1
 256 768 l 5,25,-1
 384 768 l 5,26,-1
 384 640 l 5,27,-1
 256 640 l 5,24,-1
384 0 m 5,28,-1
 384 128 l 5,29,-1
 512 128 l 5,30,-1
 640 128 l 5,31,-1
 640 0 l 5,32,-1
 512 0 l 5,33,-1
 384 0 l 5,28,-1
384 256 m 5,34,-1
 384 384 l 5,35,-1
 384 512 l 5,36,-1
 384 640 l 5,37,-1
 512 640 l 5,38,-1
 512 512 l 5,39,-1
 512 384 l 5,40,-1
 512 256 l 5,41,-1
 384 256 l 5,34,-1
640 128 m 5,42,-1
 640 256 l 5,43,-1
 768 256 l 5,44,-1
 768 128 l 5,45,-1
 640 128 l 5,42,-1
640 768 m 5,46,-1
 640 896 l 5,47,-1
 768 896 l 5,48,-1
 768 768 l 5,49,-1
 640 768 l 5,46,-1
768 256 m 5,50,-1
 768 384 l 5,51,-1
 768 512 l 5,52,-1
 768 640 l 5,53,-1
 768 768 l 5,54,-1
 896 768 l 5,55,-1
 896 640 l 5,56,-1
 896 512 l 5,57,-1
 896 384 l 5,58,-1
 896 256 l 5,59,-1
 768 256 l 5,50,-1
EndSplineSet
EndChar

StartChar: uni0C97
Encoding: 20 3223 19
Width: 896
Flags: W
LayerCount: 2
Fore
SplineSet
0 128 m 5,0,-1
 0 256 l 5,1,-1
 0 384 l 5,2,-1
 0 512 l 5,3,-1
 128 512 l 5,4,-1
 128 384 l 5,5,-1
 128 256 l 5,6,-1
 128 128 l 5,7,-1
 0 128 l 5,0,-1
128 0 m 5,8,-1
 128 128 l 5,9,-1
 256 128 l 5,10,-1
 256 0 l 5,11,-1
 128 0 l 5,8,-1
128 512 m 5,12,-1
 128 640 l 5,13,-1
 256 640 l 5,14,-1
 256 512 l 5,15,-1
 128 512 l 5,12,-1
256 640 m 5,16,-1
 256 768 l 5,17,-1
 384 768 l 5,18,-1
 512 768 l 5,19,-1
 640 768 l 5,20,-1
 640 640 l 5,21,-1
 512 640 l 5,22,-1
 384 640 l 5,23,-1
 256 640 l 5,16,-1
512 0 m 5,24,-1
 512 128 l 5,25,-1
 640 128 l 5,26,-1
 640 0 l 5,27,-1
 512 0 l 5,24,-1
640 128 m 5,28,-1
 640 256 l 5,29,-1
 640 384 l 5,30,-1
 640 512 l 5,31,-1
 640 640 l 5,32,-1
 768 640 l 5,33,-1
 768 512 l 5,34,-1
 768 384 l 5,35,-1
 768 256 l 5,36,-1
 768 128 l 5,37,-1
 640 128 l 5,28,-1
640 768 m 5,38,-1
 640 896 l 5,39,-1
 768 896 l 5,40,-1
 768 768 l 5,41,-1
 640 768 l 5,38,-1
EndSplineSet
EndChar

StartChar: uni0C98
Encoding: 21 3224 20
Width: 896
Flags: W
LayerCount: 2
Fore
SplineSet
0 128 m 1,0,-1
 0 256 l 1,1,-1
 0 384 l 1,2,-1
 128 384 l 1,3,-1
 128 256 l 1,4,-1
 128 128 l 1,5,-1
 0 128 l 1,0,-1
128 0 m 1,6,-1
 128 128 l 1,7,-1
 256 128 l 1,8,-1
 256 256 l 1,9,-1
 384 256 l 1,10,-1
 384 128 l 1,11,-1
 512 128 l 1,12,-1
 640 128 l 1,13,-1
 640 0 l 1,14,-1
 512 0 l 1,15,-1
 384 0 l 1,16,-1
 384 -128 l 1,17,-1
 256 -128 l 1,18,-1
 256 0 l 1,19,-1
 128 0 l 1,6,-1
128 384 m 1,20,-1
 128 512 l 1,21,-1
 256 512 l 1,22,-1
 256 384 l 1,23,-1
 128 384 l 1,20,-1
256 640 m 1,24,-1
 256 768 l 1,25,-1
 384 768 l 1,26,-1
 512 768 l 1,27,-1
 640 768 l 1,28,-1
 640 640 l 1,29,-1
 512 640 l 1,30,-1
 512 512 l 1,31,-1
 384 512 l 1,32,-1
 384 640 l 1,33,-1
 256 640 l 1,24,-1
512 256 m 1,34,-1
 512 384 l 1,35,-1
 640 384 l 1,36,-1
 640 256 l 1,37,-1
 512 256 l 1,34,-1
640 768 m 1,38,-1
 640 896 l 1,39,-1
 768 896 l 1,40,-1
 768 768 l 1,41,-1
 640 768 l 1,38,-1
640 128 m 1,42,-1
 640 256 l 1,43,-1
 768 256 l 1,44,-1
 768 128 l 1,45,-1
 640 128 l 1,42,-1
640 384 m 1,46,-1
 640 512 l 1,47,-1
 768 512 l 1,48,-1
 768 384 l 1,49,-1
 640 384 l 1,46,-1
EndSplineSet
EndChar

StartChar: uni0C99
Encoding: 22 3225 21
Width: 1024
LayerCount: 2
Fore
SplineSet
0 640 m 5,0,-1
 0 768 l 5,1,-1
 128 768 l 5,2,-1
 128 640 l 5,3,-1
 0 640 l 5,0,-1
128 768 m 5,4,-1
 128 896 l 5,5,-1
 256 896 l 5,6,-1
 256 768 l 5,7,-1
 128 768 l 5,4,-1
256 128 m 5,8,-1
 256 256 l 5,9,-1
 256 384 l 5,10,-1
 256 512 l 5,11,-1
 256 640 l 5,12,-1
 256 768 l 5,13,-1
 384 768 l 5,14,-1
 384 640 l 5,15,-1
 384 512 l 5,16,-1
 384 384 l 5,17,-1
 384 256 l 5,18,-1
 384 128 l 5,19,-1
 256 128 l 5,8,-1
384 0 m 5,20,-1
 384 128 l 5,21,-1
 512 128 l 5,22,-1
 512 0 l 5,23,-1
 384 0 l 5,20,-1
384 768 m 5,24,-1
 384 896 l 5,25,-1
 512 896 l 5,26,-1
 640 896 l 5,27,-1
 768 896 l 5,28,-1
 768 768 l 5,29,-1
 640 768 l 5,30,-1
 512 768 l 5,31,-1
 384 768 l 5,24,-1
512 128 m 5,32,-1
 512 256 l 5,33,-1
 640 256 l 5,34,-1
 640 128 l 5,35,-1
 512 128 l 5,32,-1
512 512 m 5,36,-1
 512 640 l 5,37,-1
 640 640 l 5,38,-1
 640 512 l 5,39,-1
 512 512 l 5,36,-1
640 0 m 5,40,-1
 640 128 l 5,41,-1
 768 128 l 5,42,-1
 768 0 l 5,43,-1
 640 0 l 5,40,-1
768 128 m 5,44,-1
 768 256 l 5,45,-1
 768 384 l 5,46,-1
 896 384 l 5,47,-1
 896 256 l 5,48,-1
 896 128 l 5,49,-1
 768 128 l 5,44,-1
768 640 m 5,50,-1
 768 768 l 5,51,-1
 896 768 l 5,52,-1
 896 640 l 5,53,-1
 768 640 l 5,50,-1
EndSplineSet
EndChar

StartChar: uni0C9A
Encoding: 23 3226 22
Width: 1152
Flags: W
LayerCount: 2
Fore
SplineSet
0 640 m 5,0,-1
 0 768 l 5,1,-1
 128 768 l 5,2,-1
 128 640 l 5,3,-1
 0 640 l 5,0,-1
128 768 m 5,4,-1
 128 896 l 5,5,-1
 256 896 l 5,6,-1
 256 768 l 5,7,-1
 128 768 l 5,4,-1
256 128 m 5,8,-1
 256 256 l 5,9,-1
 256 384 l 5,10,-1
 256 512 l 5,11,-1
 256 640 l 5,12,-1
 256 768 l 5,13,-1
 384 768 l 5,14,-1
 384 640 l 5,15,-1
 384 512 l 5,16,-1
 384 384 l 5,17,-1
 384 256 l 5,18,-1
 384 128 l 5,19,-1
 256 128 l 5,8,-1
384 0 m 5,20,-1
 384 128 l 5,21,-1
 512 128 l 5,22,-1
 512 0 l 5,23,-1
 384 0 l 5,20,-1
512 128 m 5,24,-1
 512 256 l 5,25,-1
 640 256 l 5,26,-1
 640 128 l 5,27,-1
 512 128 l 5,24,-1
640 0 m 5,28,-1
 640 128 l 5,29,-1
 768 128 l 5,30,-1
 768 0 l 5,31,-1
 640 0 l 5,28,-1
640 384 m 5,32,-1
 640 512 l 5,33,-1
 768 512 l 5,34,-1
 768 640 l 5,35,-1
 896 640 l 5,36,-1
 896 512 l 5,37,-1
 1024 512 l 5,38,-1
 1024 384 l 5,39,-1
 896 384 l 5,40,-1
 896 256 l 5,41,-1
 896 128 l 5,42,-1
 768 128 l 5,43,-1
 768 256 l 5,44,-1
 768 384 l 5,45,-1
 640 384 l 5,32,-1
640 640 m 5,46,-1
 640 768 l 5,47,-1
 768 768 l 5,48,-1
 768 640 l 5,49,-1
 640 640 l 5,46,-1
768 768 m 5,50,-1
 768 896 l 5,51,-1
 896 896 l 5,52,-1
 896 768 l 5,53,-1
 768 768 l 5,50,-1
EndSplineSet
EndChar

StartChar: uni0C9B
Encoding: 24 3227 23
Width: 1024
LayerCount: 2
Fore
SplineSet
0 256 m 5,0,-1
 0 384 l 5,1,-1
 0 512 l 5,2,-1
 0 640 l 5,3,-1
 0 768 l 5,4,-1
 128 768 l 5,5,-1
 128 640 l 5,6,-1
 128 512 l 5,7,-1
 128 384 l 5,8,-1
 128 256 l 5,9,-1
 0 256 l 5,0,-1
128 128 m 5,10,-1
 128 256 l 5,11,-1
 256 256 l 5,12,-1
 256 128 l 5,13,-1
 128 128 l 5,10,-1
128 768 m 5,14,-1
 128 896 l 5,15,-1
 256 896 l 5,16,-1
 256 768 l 5,17,-1
 128 768 l 5,14,-1
256 0 m 5,18,-1
 256 128 l 5,19,-1
 384 128 l 5,20,-1
 384 256 l 5,21,-1
 512 256 l 5,22,-1
 512 128 l 5,23,-1
 640 128 l 5,24,-1
 768 128 l 5,25,-1
 768 0 l 5,26,-1
 640 0 l 5,27,-1
 512 0 l 5,28,-1
 512 -128 l 5,29,-1
 384 -128 l 5,30,-1
 384 0 l 5,31,-1
 256 0 l 5,18,-1
256 640 m 5,32,-1
 256 768 l 5,33,-1
 384 768 l 5,34,-1
 384 640 l 5,35,-1
 256 640 l 5,32,-1
512 640 m 5,36,-1
 512 768 l 5,37,-1
 640 768 l 5,38,-1
 768 768 l 5,39,-1
 768 640 l 5,40,-1
 640 640 l 5,41,-1
 512 640 l 5,36,-1
768 128 m 5,42,-1
 768 256 l 5,43,-1
 768 384 l 5,44,-1
 768 512 l 5,45,-1
 768 640 l 5,46,-1
 896 640 l 5,47,-1
 896 512 l 5,48,-1
 896 384 l 5,49,-1
 896 256 l 5,50,-1
 896 128 l 5,51,-1
 768 128 l 5,42,-1
768 768 m 5,52,-1
 768 896 l 5,53,-1
 896 896 l 5,54,-1
 896 768 l 5,55,-1
 768 768 l 5,52,-1
EndSplineSet
EndChar

StartChar: uni0C9C
Encoding: 25 3228 24
Width: 1024
LayerCount: 2
Fore
SplineSet
0 640 m 5,0,-1
 0 768 l 5,1,-1
 128 768 l 5,2,-1
 128 640 l 5,3,-1
 0 640 l 5,0,-1
128 768 m 5,4,-1
 128 896 l 5,5,-1
 256 896 l 5,6,-1
 256 768 l 5,7,-1
 128 768 l 5,4,-1
256 128 m 5,8,-1
 256 256 l 5,9,-1
 256 384 l 5,10,-1
 256 512 l 5,11,-1
 256 640 l 5,12,-1
 256 768 l 5,13,-1
 384 768 l 5,14,-1
 384 640 l 5,15,-1
 512 640 l 5,16,-1
 640 640 l 5,17,-1
 640 512 l 5,18,-1
 512 512 l 5,19,-1
 384 512 l 5,20,-1
 384 384 l 5,21,-1
 384 256 l 5,22,-1
 384 128 l 5,23,-1
 256 128 l 5,8,-1
384 0 m 5,24,-1
 384 128 l 5,25,-1
 512 128 l 5,26,-1
 512 0 l 5,27,-1
 384 0 l 5,24,-1
512 128 m 5,28,-1
 512 256 l 5,29,-1
 640 256 l 5,30,-1
 640 128 l 5,31,-1
 512 128 l 5,28,-1
640 0 m 5,32,-1
 640 128 l 5,33,-1
 768 128 l 5,34,-1
 768 0 l 5,35,-1
 640 0 l 5,32,-1
640 640 m 5,36,-1
 640 768 l 5,37,-1
 768 768 l 5,38,-1
 768 640 l 5,39,-1
 640 640 l 5,36,-1
768 128 m 5,40,-1
 768 256 l 5,41,-1
 768 384 l 5,42,-1
 896 384 l 5,43,-1
 896 256 l 5,44,-1
 896 128 l 5,45,-1
 768 128 l 5,40,-1
EndSplineSet
EndChar

StartChar: uni0C9D
Encoding: 26 3229 25
Width: 1664
Flags: W
LayerCount: 2
Fore
SplineSet
0 256 m 5,0,-1
 0 384 l 5,1,-1
 0 512 l 5,2,-1
 128 512 l 5,3,-1
 128 384 l 5,4,-1
 128 256 l 5,5,-1
 0 256 l 5,0,-1
128 128 m 5,6,-1
 128 256 l 5,7,-1
 256 256 l 5,8,-1
 256 128 l 5,9,-1
 128 128 l 5,6,-1
128 512 m 5,10,-1
 128 640 l 5,11,-1
 256 640 l 5,12,-1
 256 512 l 5,13,-1
 128 512 l 5,10,-1
256 0 m 5,14,-1
 256 128 l 5,15,-1
 384 128 l 5,16,-1
 512 128 l 5,17,-1
 640 128 l 5,18,-1
 640 0 l 5,19,-1
 512 0 l 5,20,-1
 384 0 l 5,21,-1
 256 0 l 5,14,-1
256 640 m 5,22,-1
 256 768 l 5,23,-1
 384 768 l 5,24,-1
 512 768 l 5,25,-1
 640 768 l 5,26,-1
 640 640 l 5,27,-1
 512 640 l 5,28,-1
 384 640 l 5,29,-1
 256 640 l 5,22,-1
640 128 m 5,30,-1
 640 256 l 5,31,-1
 640 384 l 5,32,-1
 640 512 l 5,33,-1
 640 640 l 5,34,-1
 768 640 l 5,35,-1
 768 512 l 5,36,-1
 768 384 l 5,37,-1
 768 256 l 5,38,-1
 768 128 l 5,39,-1
 640 128 l 5,30,-1
640 768 m 5,40,-1
 640 896 l 5,41,-1
 768 896 l 5,42,-1
 768 768 l 5,43,-1
 640 768 l 5,40,-1
768 0 m 5,44,-1
 768 128 l 5,45,-1
 896 128 l 5,46,-1
 1024 128 l 5,47,-1
 1024 256 l 5,48,-1
 1024 384 l 5,49,-1
 1024 512 l 5,50,-1
 1024 640 l 5,51,-1
 1152 640 l 5,52,-1
 1152 512 l 5,53,-1
 1152 384 l 5,54,-1
 1152 256 l 5,55,-1
 1152 128 l 5,56,-1
 1280 128 l 5,57,-1
 1408 128 l 5,58,-1
 1408 0 l 5,59,-1
 1280 0 l 5,60,-1
 1152 0 l 5,61,-1
 1152 -128 l 5,62,-1
 1024 -128 l 5,63,-1
 1024 0 l 5,64,-1
 896 0 l 5,65,-1
 768 0 l 5,44,-1
896 640 m 5,66,-1
 896 768 l 5,67,-1
 1024 768 l 5,68,-1
 1024 640 l 5,69,-1
 896 640 l 5,66,-1
1280 640 m 5,70,-1
 1280 768 l 5,71,-1
 1408 768 l 5,72,-1
 1408 640 l 5,73,-1
 1280 640 l 5,70,-1
1408 128 m 5,74,-1
 1408 256 l 5,75,-1
 1408 384 l 5,76,-1
 1408 512 l 5,77,-1
 1408 640 l 5,78,-1
 1536 640 l 5,79,-1
 1536 512 l 5,80,-1
 1536 384 l 5,81,-1
 1536 256 l 5,82,-1
 1536 128 l 5,83,-1
 1408 128 l 5,74,-1
EndSplineSet
EndChar

StartChar: uni0C9E
Encoding: 27 3230 26
Width: 1408
Flags: W
LayerCount: 2
Fore
SplineSet
0 128 m 5,0,-1
 0 256 l 5,1,-1
 128 256 l 5,2,-1
 128 128 l 5,3,-1
 0 128 l 5,0,-1
0 512 m 5,4,-1
 0 640 l 5,5,-1
 0 768 l 5,6,-1
 128 768 l 5,7,-1
 128 640 l 5,8,-1
 128 512 l 5,9,-1
 0 512 l 5,4,-1
128 0 m 5,10,-1
 128 128 l 5,11,-1
 256 128 l 5,12,-1
 384 128 l 5,13,-1
 384 0 l 5,14,-1
 256 0 l 5,15,-1
 128 0 l 5,10,-1
128 256 m 5,16,-1
 128 384 l 5,17,-1
 256 384 l 5,18,-1
 384 384 l 5,19,-1
 384 256 l 5,20,-1
 256 256 l 5,21,-1
 128 256 l 5,16,-1
128 768 m 5,22,-1
 128 896 l 5,23,-1
 256 896 l 5,24,-1
 384 896 l 5,25,-1
 384 768 l 5,26,-1
 256 768 l 5,27,-1
 128 768 l 5,22,-1
384 128 m 5,28,-1
 384 256 l 5,29,-1
 512 256 l 5,30,-1
 512 128 l 5,31,-1
 384 128 l 5,28,-1
384 640 m 5,32,-1
 384 768 l 5,33,-1
 512 768 l 5,34,-1
 512 640 l 5,35,-1
 384 640 l 5,32,-1
512 0 m 5,36,-1
 512 128 l 5,37,-1
 640 128 l 5,38,-1
 640 0 l 5,39,-1
 512 0 l 5,36,-1
512 768 m 5,40,-1
 512 896 l 5,41,-1
 640 896 l 5,42,-1
 768 896 l 5,43,-1
 768 768 l 5,44,-1
 640 768 l 5,45,-1
 512 768 l 5,40,-1
640 -128 m 5,46,-1
 640 0 l 5,47,-1
 768 0 l 5,48,-1
 896 0 l 5,49,-1
 896 -128 l 5,50,-1
 768 -128 l 5,51,-1
 640 -128 l 5,46,-1
640 128 m 5,52,-1
 640 256 l 5,53,-1
 768 256 l 5,54,-1
 768 128 l 5,55,-1
 640 128 l 5,52,-1
768 256 m 5,56,-1
 768 384 l 5,57,-1
 768 512 l 5,58,-1
 768 640 l 5,59,-1
 768 768 l 5,60,-1
 896 768 l 5,61,-1
 896 640 l 5,62,-1
 896 512 l 5,63,-1
 896 384 l 5,64,-1
 896 256 l 5,65,-1
 768 256 l 5,56,-1
896 768 m 5,66,-1
 896 896 l 5,67,-1
 1024 896 l 5,68,-1
 1152 896 l 5,69,-1
 1152 768 l 5,70,-1
 1024 768 l 5,71,-1
 896 768 l 5,66,-1
1152 512 m 5,72,-1
 1152 640 l 5,73,-1
 1152 768 l 5,74,-1
 1280 768 l 5,75,-1
 1280 640 l 5,76,-1
 1280 512 l 5,77,-1
 1152 512 l 5,72,-1
EndSplineSet
EndChar

StartChar: uni0C9F
Encoding: 28 3231 27
Width: 1024
LayerCount: 2
Fore
SplineSet
0 128 m 5,0,-1
 0 256 l 5,1,-1
 0 384 l 5,2,-1
 128 384 l 5,3,-1
 128 256 l 5,4,-1
 128 128 l 5,5,-1
 0 128 l 5,0,-1
0 512 m 5,6,-1
 0 640 l 5,7,-1
 0 768 l 5,8,-1
 128 768 l 5,9,-1
 128 640 l 5,10,-1
 128 512 l 5,11,-1
 0 512 l 5,6,-1
128 0 m 5,12,-1
 128 128 l 5,13,-1
 256 128 l 5,14,-1
 384 128 l 5,15,-1
 384 0 l 5,16,-1
 256 0 l 5,17,-1
 128 0 l 5,12,-1
128 384 m 5,18,-1
 128 512 l 5,19,-1
 256 512 l 5,20,-1
 256 384 l 5,21,-1
 128 384 l 5,18,-1
128 768 m 5,22,-1
 128 896 l 5,23,-1
 256 896 l 5,24,-1
 256 768 l 5,25,-1
 128 768 l 5,22,-1
384 128 m 5,26,-1
 384 256 l 5,27,-1
 512 256 l 5,28,-1
 512 128 l 5,29,-1
 384 128 l 5,26,-1
512 0 m 5,30,-1
 512 128 l 5,31,-1
 640 128 l 5,32,-1
 768 128 l 5,33,-1
 768 0 l 5,34,-1
 640 0 l 5,35,-1
 512 0 l 5,30,-1
640 384 m 5,36,-1
 640 512 l 5,37,-1
 768 512 l 5,38,-1
 768 384 l 5,39,-1
 640 384 l 5,36,-1
640 768 m 5,40,-1
 640 896 l 5,41,-1
 768 896 l 5,42,-1
 768 768 l 5,43,-1
 640 768 l 5,40,-1
768 128 m 5,44,-1
 768 256 l 5,45,-1
 768 384 l 5,46,-1
 896 384 l 5,47,-1
 896 256 l 5,48,-1
 896 128 l 5,49,-1
 768 128 l 5,44,-1
768 512 m 5,50,-1
 768 640 l 5,51,-1
 768 768 l 5,52,-1
 896 768 l 5,53,-1
 896 640 l 5,54,-1
 896 512 l 5,55,-1
 768 512 l 5,50,-1
EndSplineSet
EndChar

StartChar: uni0CA0
Encoding: 29 3232 28
Width: 896
Flags: W
LayerCount: 2
Fore
SplineSet
0 256 m 5,0,-1
 0 384 l 5,1,-1
 0 512 l 5,2,-1
 128 512 l 5,3,-1
 128 384 l 5,4,-1
 128 256 l 5,5,-1
 0 256 l 5,0,-1
128 128 m 5,6,-1
 128 256 l 5,7,-1
 256 256 l 5,8,-1
 256 128 l 5,9,-1
 128 128 l 5,6,-1
128 512 m 5,10,-1
 128 640 l 5,11,-1
 256 640 l 5,12,-1
 256 512 l 5,13,-1
 128 512 l 5,10,-1
256 0 m 5,14,-1
 256 128 l 5,15,-1
 384 128 l 5,16,-1
 512 128 l 5,17,-1
 512 0 l 5,18,-1
 384 0 l 5,19,-1
 256 0 l 5,14,-1
256 640 m 5,20,-1
 256 768 l 5,21,-1
 384 768 l 5,22,-1
 512 768 l 5,23,-1
 640 768 l 5,24,-1
 640 640 l 5,25,-1
 512 640 l 5,26,-1
 384 640 l 5,27,-1
 256 640 l 5,20,-1
384 384 m 5,28,-1
 384 512 l 5,29,-1
 512 512 l 5,30,-1
 512 384 l 5,31,-1
 384 384 l 5,28,-1
512 128 m 5,32,-1
 512 256 l 5,33,-1
 640 256 l 5,34,-1
 640 128 l 5,35,-1
 512 128 l 5,32,-1
640 256 m 5,36,-1
 640 384 l 5,37,-1
 640 512 l 5,38,-1
 640 640 l 5,39,-1
 768 640 l 5,40,-1
 768 512 l 5,41,-1
 768 384 l 5,42,-1
 768 256 l 5,43,-1
 640 256 l 5,36,-1
640 768 m 5,44,-1
 640 896 l 5,45,-1
 768 896 l 5,46,-1
 768 768 l 5,47,-1
 640 768 l 5,44,-1
EndSplineSet
EndChar

StartChar: uni0CA1
Encoding: 30 3233 29
Width: 1024
LayerCount: 2
Fore
SplineSet
0 128 m 5,0,-1
 0 256 l 5,1,-1
 0 384 l 5,2,-1
 0 512 l 5,3,-1
 0 640 l 5,4,-1
 128 640 l 5,5,-1
 128 512 l 5,6,-1
 128 384 l 5,7,-1
 128 256 l 5,8,-1
 128 128 l 5,9,-1
 0 128 l 5,0,-1
128 0 m 5,10,-1
 128 128 l 5,11,-1
 256 128 l 5,12,-1
 384 128 l 5,13,-1
 384 0 l 5,14,-1
 256 0 l 5,15,-1
 128 0 l 5,10,-1
128 640 m 5,16,-1
 128 768 l 5,17,-1
 256 768 l 5,18,-1
 384 768 l 5,19,-1
 512 768 l 5,20,-1
 640 768 l 5,21,-1
 768 768 l 5,22,-1
 768 640 l 5,23,-1
 640 640 l 5,24,-1
 512 640 l 5,25,-1
 384 640 l 5,26,-1
 256 640 l 5,27,-1
 128 640 l 5,16,-1
384 128 m 5,28,-1
 384 256 l 5,29,-1
 512 256 l 5,30,-1
 512 128 l 5,31,-1
 384 128 l 5,28,-1
512 0 m 5,32,-1
 512 128 l 5,33,-1
 640 128 l 5,34,-1
 768 128 l 5,35,-1
 768 0 l 5,36,-1
 640 0 l 5,37,-1
 512 0 l 5,32,-1
640 256 m 5,38,-1
 640 384 l 5,39,-1
 640 512 l 5,40,-1
 768 512 l 5,41,-1
 768 384 l 5,42,-1
 768 256 l 5,43,-1
 640 256 l 5,38,-1
768 128 m 5,44,-1
 768 256 l 5,45,-1
 896 256 l 5,46,-1
 896 128 l 5,47,-1
 768 128 l 5,44,-1
768 512 m 5,48,-1
 768 640 l 5,49,-1
 896 640 l 5,50,-1
 896 512 l 5,51,-1
 768 512 l 5,48,-1
768 768 m 5,52,-1
 768 896 l 5,53,-1
 896 896 l 5,54,-1
 896 768 l 5,55,-1
 768 768 l 5,52,-1
EndSplineSet
EndChar

StartChar: uni0CA2
Encoding: 31 3234 30
Width: 1024
LayerCount: 2
Fore
SplineSet
0 128 m 5,0,-1
 0 256 l 5,1,-1
 0 384 l 5,2,-1
 0 512 l 5,3,-1
 0 640 l 5,4,-1
 128 640 l 5,5,-1
 128 512 l 5,6,-1
 128 384 l 5,7,-1
 128 256 l 5,8,-1
 128 128 l 5,9,-1
 0 128 l 5,0,-1
128 0 m 5,10,-1
 128 128 l 5,11,-1
 256 128 l 5,12,-1
 384 128 l 5,13,-1
 384 256 l 5,14,-1
 512 256 l 5,15,-1
 512 128 l 5,16,-1
 640 128 l 5,17,-1
 768 128 l 5,18,-1
 768 0 l 5,19,-1
 640 0 l 5,20,-1
 512 0 l 5,21,-1
 512 -128 l 5,22,-1
 384 -128 l 5,23,-1
 384 0 l 5,24,-1
 256 0 l 5,25,-1
 128 0 l 5,10,-1
128 640 m 5,26,-1
 128 768 l 5,27,-1
 256 768 l 5,28,-1
 384 768 l 5,29,-1
 512 768 l 5,30,-1
 640 768 l 5,31,-1
 768 768 l 5,32,-1
 768 640 l 5,33,-1
 640 640 l 5,34,-1
 512 640 l 5,35,-1
 384 640 l 5,36,-1
 256 640 l 5,37,-1
 128 640 l 5,26,-1
640 256 m 5,38,-1
 640 384 l 5,39,-1
 640 512 l 5,40,-1
 768 512 l 5,41,-1
 768 384 l 5,42,-1
 768 256 l 5,43,-1
 640 256 l 5,38,-1
768 128 m 5,44,-1
 768 256 l 5,45,-1
 896 256 l 5,46,-1
 896 128 l 5,47,-1
 768 128 l 5,44,-1
768 512 m 5,48,-1
 768 640 l 5,49,-1
 896 640 l 5,50,-1
 896 512 l 5,51,-1
 768 512 l 5,48,-1
768 768 m 5,52,-1
 768 896 l 5,53,-1
 896 896 l 5,54,-1
 896 768 l 5,55,-1
 768 768 l 5,52,-1
EndSplineSet
EndChar

StartChar: uni0CA3
Encoding: 32 3235 31
Width: 1024
LayerCount: 2
Fore
SplineSet
0 128 m 5,0,-1
 0 256 l 5,1,-1
 0 384 l 5,2,-1
 128 384 l 5,3,-1
 128 256 l 5,4,-1
 128 128 l 5,5,-1
 0 128 l 5,0,-1
0 512 m 5,6,-1
 0 640 l 5,7,-1
 0 768 l 5,8,-1
 128 768 l 5,9,-1
 128 640 l 5,10,-1
 128 512 l 5,11,-1
 0 512 l 5,6,-1
128 0 m 5,12,-1
 128 128 l 5,13,-1
 256 128 l 5,14,-1
 256 0 l 5,15,-1
 128 0 l 5,12,-1
128 384 m 5,16,-1
 128 512 l 5,17,-1
 256 512 l 5,18,-1
 256 384 l 5,19,-1
 128 384 l 5,16,-1
128 768 m 5,20,-1
 128 896 l 5,21,-1
 256 896 l 5,22,-1
 384 896 l 5,23,-1
 384 768 l 5,24,-1
 256 768 l 5,25,-1
 128 768 l 5,20,-1
384 128 m 5,26,-1
 384 256 l 5,27,-1
 512 256 l 5,28,-1
 512 128 l 5,29,-1
 384 128 l 5,26,-1
384 640 m 5,30,-1
 384 768 l 5,31,-1
 512 768 l 5,32,-1
 512 640 l 5,33,-1
 384 640 l 5,30,-1
512 0 m 5,34,-1
 512 128 l 5,35,-1
 640 128 l 5,36,-1
 768 128 l 5,37,-1
 768 0 l 5,38,-1
 640 0 l 5,39,-1
 512 0 l 5,34,-1
512 768 m 5,40,-1
 512 896 l 5,41,-1
 640 896 l 5,42,-1
 768 896 l 5,43,-1
 768 768 l 5,44,-1
 640 768 l 5,45,-1
 512 768 l 5,40,-1
640 384 m 5,46,-1
 640 512 l 5,47,-1
 768 512 l 5,48,-1
 768 384 l 5,49,-1
 640 384 l 5,46,-1
768 128 m 5,50,-1
 768 256 l 5,51,-1
 768 384 l 5,52,-1
 896 384 l 5,53,-1
 896 256 l 5,54,-1
 896 128 l 5,55,-1
 768 128 l 5,50,-1
768 512 m 5,56,-1
 768 640 l 5,57,-1
 768 768 l 5,58,-1
 896 768 l 5,59,-1
 896 640 l 5,60,-1
 896 512 l 5,61,-1
 768 512 l 5,56,-1
EndSplineSet
EndChar

StartChar: uni0CA4
Encoding: 33 3236 32
Width: 640
Flags: W
LayerCount: 2
Fore
SplineSet
0 128 m 5,0,-1
 0 256 l 5,1,-1
 128 256 l 5,2,-1
 128 128 l 5,3,-1
 0 128 l 5,0,-1
128 0 m 5,4,-1
 128 128 l 5,5,-1
 256 128 l 5,6,-1
 384 128 l 5,7,-1
 384 0 l 5,8,-1
 256 0 l 5,9,-1
 128 0 l 5,4,-1
128 640 m 5,10,-1
 128 768 l 5,11,-1
 256 768 l 5,12,-1
 384 768 l 5,13,-1
 384 640 l 5,14,-1
 256 640 l 5,15,-1
 128 640 l 5,10,-1
256 384 m 5,16,-1
 256 512 l 5,17,-1
 384 512 l 5,18,-1
 384 384 l 5,19,-1
 256 384 l 5,16,-1
384 128 m 5,20,-1
 384 256 l 5,21,-1
 384 384 l 5,22,-1
 512 384 l 5,23,-1
 512 256 l 5,24,-1
 512 128 l 5,25,-1
 384 128 l 5,20,-1
384 512 m 5,26,-1
 384 640 l 5,27,-1
 512 640 l 5,28,-1
 512 512 l 5,29,-1
 384 512 l 5,26,-1
384 768 m 5,30,-1
 384 896 l 5,31,-1
 512 896 l 5,32,-1
 512 768 l 5,33,-1
 384 768 l 5,30,-1
EndSplineSet
EndChar

StartChar: uni0CA5
Encoding: 34 3237 33
Width: 1024
LayerCount: 2
Fore
SplineSet
0 128 m 5,0,-1
 0 256 l 5,1,-1
 0 384 l 5,2,-1
 0 512 l 5,3,-1
 0 640 l 5,4,-1
 128 640 l 5,5,-1
 128 512 l 5,6,-1
 128 384 l 5,7,-1
 128 256 l 5,8,-1
 128 128 l 5,9,-1
 0 128 l 5,0,-1
128 0 m 5,10,-1
 128 128 l 5,11,-1
 256 128 l 5,12,-1
 384 128 l 5,13,-1
 384 256 l 5,14,-1
 512 256 l 5,15,-1
 512 128 l 5,16,-1
 640 128 l 5,17,-1
 768 128 l 5,18,-1
 768 0 l 5,19,-1
 640 0 l 5,20,-1
 512 0 l 5,21,-1
 512 -128 l 5,22,-1
 384 -128 l 5,23,-1
 384 0 l 5,24,-1
 256 0 l 5,25,-1
 128 0 l 5,10,-1
128 640 m 5,26,-1
 128 768 l 5,27,-1
 256 768 l 5,28,-1
 384 768 l 5,29,-1
 512 768 l 5,30,-1
 640 768 l 5,31,-1
 768 768 l 5,32,-1
 768 640 l 5,33,-1
 640 640 l 5,34,-1
 512 640 l 5,35,-1
 384 640 l 5,36,-1
 256 640 l 5,37,-1
 128 640 l 5,26,-1
384 384 m 5,38,-1
 384 512 l 5,39,-1
 512 512 l 5,40,-1
 512 384 l 5,41,-1
 384 384 l 5,38,-1
768 128 m 5,42,-1
 768 256 l 5,43,-1
 768 384 l 5,44,-1
 768 512 l 5,45,-1
 768 640 l 5,46,-1
 896 640 l 5,47,-1
 896 512 l 5,48,-1
 896 384 l 5,49,-1
 896 256 l 5,50,-1
 896 128 l 5,51,-1
 768 128 l 5,42,-1
768 768 m 5,52,-1
 768 896 l 5,53,-1
 896 896 l 5,54,-1
 896 768 l 5,55,-1
 768 768 l 5,52,-1
EndSplineSet
EndChar

StartChar: uni0CA6
Encoding: 35 3238 34
Width: 1024
LayerCount: 2
Fore
SplineSet
0 128 m 5,0,-1
 0 256 l 5,1,-1
 0 384 l 5,2,-1
 0 512 l 5,3,-1
 0 640 l 5,4,-1
 128 640 l 5,5,-1
 128 512 l 5,6,-1
 128 384 l 5,7,-1
 128 256 l 5,8,-1
 128 128 l 5,9,-1
 0 128 l 5,0,-1
128 0 m 5,10,-1
 128 128 l 5,11,-1
 256 128 l 5,12,-1
 384 128 l 5,13,-1
 384 0 l 5,14,-1
 256 0 l 5,15,-1
 128 0 l 5,10,-1
128 640 m 5,16,-1
 128 768 l 5,17,-1
 256 768 l 5,18,-1
 384 768 l 5,19,-1
 512 768 l 5,20,-1
 640 768 l 5,21,-1
 768 768 l 5,22,-1
 768 640 l 5,23,-1
 640 640 l 5,24,-1
 512 640 l 5,25,-1
 384 640 l 5,26,-1
 256 640 l 5,27,-1
 128 640 l 5,16,-1
384 128 m 5,28,-1
 384 256 l 5,29,-1
 512 256 l 5,30,-1
 512 128 l 5,31,-1
 384 128 l 5,28,-1
512 0 m 5,32,-1
 512 128 l 5,33,-1
 640 128 l 5,34,-1
 768 128 l 5,35,-1
 768 0 l 5,36,-1
 640 0 l 5,37,-1
 512 0 l 5,32,-1
768 128 m 5,38,-1
 768 256 l 5,39,-1
 768 384 l 5,40,-1
 768 512 l 5,41,-1
 768 640 l 5,42,-1
 896 640 l 5,43,-1
 896 512 l 5,44,-1
 896 384 l 5,45,-1
 896 256 l 5,46,-1
 896 128 l 5,47,-1
 768 128 l 5,38,-1
768 768 m 5,48,-1
 768 896 l 5,49,-1
 896 896 l 5,50,-1
 896 768 l 5,51,-1
 768 768 l 5,48,-1
EndSplineSet
EndChar

StartChar: uni0CA7
Encoding: 36 3239 35
Width: 1024
LayerCount: 2
Fore
SplineSet
0 128 m 5,0,-1
 0 256 l 5,1,-1
 0 384 l 5,2,-1
 0 512 l 5,3,-1
 0 640 l 5,4,-1
 128 640 l 5,5,-1
 128 512 l 5,6,-1
 128 384 l 5,7,-1
 128 256 l 5,8,-1
 128 128 l 5,9,-1
 0 128 l 5,0,-1
128 0 m 5,10,-1
 128 128 l 5,11,-1
 256 128 l 5,12,-1
 384 128 l 5,13,-1
 384 256 l 5,14,-1
 512 256 l 5,15,-1
 512 128 l 5,16,-1
 640 128 l 5,17,-1
 768 128 l 5,18,-1
 768 0 l 5,19,-1
 640 0 l 5,20,-1
 512 0 l 5,21,-1
 512 -128 l 5,22,-1
 384 -128 l 5,23,-1
 384 0 l 5,24,-1
 256 0 l 5,25,-1
 128 0 l 5,10,-1
128 640 m 5,26,-1
 128 768 l 5,27,-1
 256 768 l 5,28,-1
 384 768 l 5,29,-1
 512 768 l 5,30,-1
 640 768 l 5,31,-1
 768 768 l 5,32,-1
 768 640 l 5,33,-1
 640 640 l 5,34,-1
 512 640 l 5,35,-1
 384 640 l 5,36,-1
 256 640 l 5,37,-1
 128 640 l 5,26,-1
768 128 m 5,38,-1
 768 256 l 5,39,-1
 768 384 l 5,40,-1
 768 512 l 5,41,-1
 768 640 l 5,42,-1
 896 640 l 5,43,-1
 896 512 l 5,44,-1
 896 384 l 5,45,-1
 896 256 l 5,46,-1
 896 128 l 5,47,-1
 768 128 l 5,38,-1
768 768 m 5,48,-1
 768 896 l 5,49,-1
 896 896 l 5,50,-1
 896 768 l 5,51,-1
 768 768 l 5,48,-1
EndSplineSet
EndChar

StartChar: uni0CA8
Encoding: 37 3240 36
Width: 896
Flags: W
LayerCount: 2
Fore
SplineSet
0 128 m 5,0,-1
 0 256 l 5,1,-1
 0 384 l 5,2,-1
 128 384 l 5,3,-1
 128 256 l 5,4,-1
 128 128 l 5,5,-1
 0 128 l 5,0,-1
128 0 m 5,6,-1
 128 128 l 5,7,-1
 256 128 l 5,8,-1
 256 0 l 5,9,-1
 128 0 l 5,6,-1
128 384 m 5,10,-1
 128 512 l 5,11,-1
 256 512 l 5,12,-1
 256 384 l 5,13,-1
 128 384 l 5,10,-1
128 640 m 5,14,-1
 128 768 l 5,15,-1
 256 768 l 5,16,-1
 384 768 l 5,17,-1
 512 768 l 5,18,-1
 640 768 l 5,19,-1
 640 640 l 5,20,-1
 512 640 l 5,21,-1
 384 640 l 5,22,-1
 256 640 l 5,23,-1
 128 640 l 5,14,-1
256 256 m 5,24,-1
 256 384 l 5,25,-1
 384 384 l 5,26,-1
 384 256 l 5,27,-1
 256 256 l 5,24,-1
384 128 m 5,28,-1
 384 256 l 5,29,-1
 512 256 l 5,30,-1
 512 128 l 5,31,-1
 384 128 l 5,28,-1
512 0 m 5,32,-1
 512 128 l 5,33,-1
 640 128 l 5,34,-1
 640 0 l 5,35,-1
 512 0 l 5,32,-1
640 128 m 5,36,-1
 640 256 l 5,37,-1
 640 384 l 5,38,-1
 640 512 l 5,39,-1
 640 640 l 5,40,-1
 768 640 l 5,41,-1
 768 512 l 5,42,-1
 768 384 l 5,43,-1
 768 256 l 5,44,-1
 768 128 l 5,45,-1
 640 128 l 5,36,-1
640 768 m 5,46,-1
 640 896 l 5,47,-1
 768 896 l 5,48,-1
 768 768 l 5,49,-1
 640 768 l 5,46,-1
EndSplineSet
EndChar

StartChar: uni0CAA
Encoding: 38 3242 37
Width: 896
Flags: W
LayerCount: 2
Fore
SplineSet
0 128 m 1,0,-1
 0 256 l 1,1,-1
 0 384 l 1,2,-1
 128 384 l 1,3,-1
 128 256 l 1,4,-1
 128 128 l 1,5,-1
 0 128 l 1,0,-1
128 0 m 1,6,-1
 128 128 l 1,7,-1
 256 128 l 1,8,-1
 256 0 l 1,9,-1
 128 0 l 1,6,-1
128 384 m 1,10,-1
 128 512 l 1,11,-1
 256 512 l 1,12,-1
 256 384 l 1,13,-1
 128 384 l 1,10,-1
256 640 m 1,14,-1
 256 768 l 1,15,-1
 384 768 l 1,16,-1
 512 768 l 1,17,-1
 640 768 l 1,18,-1
 640 640 l 1,19,-1
 512 640 l 1,20,-1
 512 512 l 1,21,-1
 384 512 l 1,22,-1
 384 640 l 1,23,-1
 256 640 l 1,14,-1
256 128 m 1,24,-1
 256 256 l 1,25,-1
 384 256 l 1,26,-1
 384 128 l 1,27,-1
 256 128 l 1,24,-1
384 0 m 1,28,-1
 384 128 l 1,29,-1
 512 128 l 1,30,-1
 640 128 l 1,31,-1
 640 0 l 1,32,-1
 512 0 l 1,33,-1
 384 0 l 1,28,-1
640 768 m 1,34,-1
 640 896 l 1,35,-1
 768 896 l 1,36,-1
 768 768 l 1,37,-1
 640 768 l 1,34,-1
640 128 m 1,38,-1
 640 256 l 1,39,-1
 640 384 l 1,40,-1
 768 384 l 1,41,-1
 768 256 l 1,42,-1
 768 128 l 1,43,-1
 640 128 l 1,38,-1
EndSplineSet
EndChar

StartChar: uni0CAB
Encoding: 39 3243 38
Width: 896
Flags: W
LayerCount: 2
Fore
SplineSet
0 128 m 1,0,-1
 0 256 l 1,1,-1
 0 384 l 1,2,-1
 128 384 l 1,3,-1
 128 256 l 1,4,-1
 128 128 l 1,5,-1
 0 128 l 1,0,-1
128 0 m 1,6,-1
 128 128 l 1,7,-1
 256 128 l 1,8,-1
 256 256 l 1,9,-1
 384 256 l 1,10,-1
 384 128 l 1,11,-1
 512 128 l 1,12,-1
 640 128 l 1,13,-1
 640 0 l 1,14,-1
 512 0 l 1,15,-1
 384 0 l 1,16,-1
 384 -128 l 1,17,-1
 256 -128 l 1,18,-1
 256 0 l 1,19,-1
 128 0 l 1,6,-1
128 384 m 1,20,-1
 128 512 l 1,21,-1
 256 512 l 1,22,-1
 256 384 l 1,23,-1
 128 384 l 1,20,-1
256 640 m 1,24,-1
 256 768 l 1,25,-1
 384 768 l 1,26,-1
 512 768 l 1,27,-1
 640 768 l 1,28,-1
 640 640 l 1,29,-1
 512 640 l 1,30,-1
 512 512 l 1,31,-1
 384 512 l 1,32,-1
 384 640 l 1,33,-1
 256 640 l 1,24,-1
640 768 m 1,34,-1
 640 896 l 1,35,-1
 768 896 l 1,36,-1
 768 768 l 1,37,-1
 640 768 l 1,34,-1
640 128 m 1,38,-1
 640 256 l 1,39,-1
 640 384 l 1,40,-1
 768 384 l 1,41,-1
 768 256 l 1,42,-1
 768 128 l 1,43,-1
 640 128 l 1,38,-1
EndSplineSet
EndChar

StartChar: uni0CAC
Encoding: 40 3244 39
Width: 1024
LayerCount: 2
Fore
SplineSet
0 640 m 5,0,-1
 0 768 l 5,1,-1
 128 768 l 5,2,-1
 128 640 l 5,3,-1
 0 640 l 5,0,-1
128 768 m 5,4,-1
 128 896 l 5,5,-1
 256 896 l 5,6,-1
 256 768 l 5,7,-1
 128 768 l 5,4,-1
256 128 m 5,8,-1
 256 256 l 5,9,-1
 256 384 l 5,10,-1
 256 512 l 5,11,-1
 256 640 l 5,12,-1
 256 768 l 5,13,-1
 384 768 l 5,14,-1
 384 640 l 5,15,-1
 384 512 l 5,16,-1
 384 384 l 5,17,-1
 384 256 l 5,18,-1
 384 128 l 5,19,-1
 256 128 l 5,8,-1
384 0 m 5,20,-1
 384 128 l 5,21,-1
 512 128 l 5,22,-1
 512 0 l 5,23,-1
 384 0 l 5,20,-1
512 128 m 5,24,-1
 512 256 l 5,25,-1
 640 256 l 5,26,-1
 640 128 l 5,27,-1
 512 128 l 5,24,-1
640 0 m 5,28,-1
 640 128 l 5,29,-1
 768 128 l 5,30,-1
 768 0 l 5,31,-1
 640 0 l 5,28,-1
640 640 m 5,32,-1
 640 768 l 5,33,-1
 768 768 l 5,34,-1
 768 640 l 5,35,-1
 640 640 l 5,32,-1
768 128 m 5,36,-1
 768 256 l 5,37,-1
 768 384 l 5,38,-1
 768 512 l 5,39,-1
 768 640 l 5,40,-1
 896 640 l 5,41,-1
 896 512 l 5,42,-1
 896 384 l 5,43,-1
 896 256 l 5,44,-1
 896 128 l 5,45,-1
 768 128 l 5,36,-1
EndSplineSet
EndChar

StartChar: uni0CAD
Encoding: 41 3245 40
Width: 1024
LayerCount: 2
Fore
SplineSet
0 640 m 5,0,-1
 0 768 l 5,1,-1
 128 768 l 5,2,-1
 128 640 l 5,3,-1
 0 640 l 5,0,-1
128 768 m 5,4,-1
 128 896 l 5,5,-1
 256 896 l 5,6,-1
 256 768 l 5,7,-1
 128 768 l 5,4,-1
256 128 m 5,8,-1
 256 256 l 5,9,-1
 256 384 l 5,10,-1
 256 512 l 5,11,-1
 256 640 l 5,12,-1
 256 768 l 5,13,-1
 384 768 l 5,14,-1
 384 640 l 5,15,-1
 384 512 l 5,16,-1
 384 384 l 5,17,-1
 384 256 l 5,18,-1
 384 128 l 5,19,-1
 256 128 l 5,8,-1
384 0 m 5,20,-1
 384 128 l 5,21,-1
 512 128 l 5,22,-1
 512 256 l 5,23,-1
 640 256 l 5,24,-1
 640 128 l 5,25,-1
 768 128 l 5,26,-1
 768 0 l 5,27,-1
 640 0 l 5,28,-1
 640 -128 l 5,29,-1
 512 -128 l 5,30,-1
 512 0 l 5,31,-1
 384 0 l 5,20,-1
640 640 m 5,32,-1
 640 768 l 5,33,-1
 768 768 l 5,34,-1
 768 640 l 5,35,-1
 640 640 l 5,32,-1
768 128 m 5,36,-1
 768 256 l 5,37,-1
 768 384 l 5,38,-1
 768 512 l 5,39,-1
 768 640 l 5,40,-1
 896 640 l 5,41,-1
 896 512 l 5,42,-1
 896 384 l 5,43,-1
 896 256 l 5,44,-1
 896 128 l 5,45,-1
 768 128 l 5,36,-1
768 768 m 5,46,-1
 768 896 l 5,47,-1
 896 896 l 5,48,-1
 896 768 l 5,49,-1
 768 768 l 5,46,-1
EndSplineSet
EndChar

StartChar: uni0CAE
Encoding: 42 3246 41
Width: 1408
Flags: W
LayerCount: 2
Fore
SplineSet
0 128 m 5,0,-1
 0 256 l 5,1,-1
 0 384 l 5,2,-1
 128 384 l 5,3,-1
 128 256 l 5,4,-1
 128 128 l 5,5,-1
 0 128 l 5,0,-1
128 0 m 5,6,-1
 128 128 l 5,7,-1
 256 128 l 5,8,-1
 384 128 l 5,9,-1
 384 0 l 5,10,-1
 256 0 l 5,11,-1
 128 0 l 5,6,-1
128 384 m 5,12,-1
 128 512 l 5,13,-1
 256 512 l 5,14,-1
 256 384 l 5,15,-1
 128 384 l 5,12,-1
128 640 m 5,16,-1
 128 768 l 5,17,-1
 256 768 l 5,18,-1
 384 768 l 5,19,-1
 512 768 l 5,20,-1
 640 768 l 5,21,-1
 768 768 l 5,22,-1
 768 640 l 5,23,-1
 640 640 l 5,24,-1
 512 640 l 5,25,-1
 384 640 l 5,26,-1
 256 640 l 5,27,-1
 128 640 l 5,16,-1
384 128 m 5,28,-1
 384 256 l 5,29,-1
 512 256 l 5,30,-1
 512 128 l 5,31,-1
 384 128 l 5,28,-1
512 0 m 5,32,-1
 512 128 l 5,33,-1
 640 128 l 5,34,-1
 768 128 l 5,35,-1
 768 0 l 5,36,-1
 640 0 l 5,37,-1
 512 0 l 5,32,-1
768 128 m 5,38,-1
 768 256 l 5,39,-1
 768 384 l 5,40,-1
 768 512 l 5,41,-1
 768 640 l 5,42,-1
 896 640 l 5,43,-1
 896 512 l 5,44,-1
 896 384 l 5,45,-1
 896 256 l 5,46,-1
 896 128 l 5,47,-1
 768 128 l 5,38,-1
768 768 m 5,48,-1
 768 896 l 5,49,-1
 896 896 l 5,50,-1
 896 768 l 5,51,-1
 768 768 l 5,48,-1
896 0 m 5,52,-1
 896 128 l 5,53,-1
 1024 128 l 5,54,-1
 1152 128 l 5,55,-1
 1152 0 l 5,56,-1
 1024 0 l 5,57,-1
 896 0 l 5,52,-1
1024 640 m 5,58,-1
 1024 768 l 5,59,-1
 1152 768 l 5,60,-1
 1152 640 l 5,61,-1
 1024 640 l 5,58,-1
1152 128 m 5,62,-1
 1152 256 l 5,63,-1
 1152 384 l 5,64,-1
 1152 512 l 5,65,-1
 1152 640 l 5,66,-1
 1281 640 l 5,67,-1
 1281 512 l 5,68,-1
 1281 384 l 5,69,-1
 1281 256 l 5,70,-1
 1281 128 l 5,71,-1
 1152 128 l 5,62,-1
EndSplineSet
EndChar

StartChar: uni0CAF
Encoding: 43 3247 42
Width: 1536
Flags: W
LayerCount: 2
Fore
SplineSet
0 256 m 5,0,-1
 0 384 l 5,1,-1
 0 512 l 5,2,-1
 128 512 l 5,3,-1
 128 384 l 5,4,-1
 128 256 l 5,5,-1
 0 256 l 5,0,-1
128 128 m 5,6,-1
 128 256 l 5,7,-1
 256 256 l 5,8,-1
 256 128 l 5,9,-1
 128 128 l 5,6,-1
128 512 m 5,10,-1
 128 640 l 5,11,-1
 256 640 l 5,12,-1
 256 512 l 5,13,-1
 128 512 l 5,10,-1
256 0 m 5,14,-1
 256 128 l 5,15,-1
 384 128 l 5,16,-1
 512 128 l 5,17,-1
 512 0 l 5,18,-1
 384 0 l 5,19,-1
 256 0 l 5,14,-1
256 640 m 5,20,-1
 256 768 l 5,21,-1
 384 768 l 5,22,-1
 512 768 l 5,23,-1
 512 640 l 5,24,-1
 384 640 l 5,25,-1
 256 640 l 5,20,-1
512 128 m 5,26,-1
 512 256 l 5,27,-1
 640 256 l 5,28,-1
 640 128 l 5,29,-1
 512 128 l 5,26,-1
512 512 m 5,30,-1
 512 640 l 5,31,-1
 640 640 l 5,32,-1
 640 512 l 5,33,-1
 512 512 l 5,30,-1
640 0 m 5,34,-1
 640 128 l 5,35,-1
 768 128 l 5,36,-1
 896 128 l 5,37,-1
 896 0 l 5,38,-1
 768 0 l 5,39,-1
 640 0 l 5,34,-1
640 256 m 5,40,-1
 640 384 l 5,41,-1
 640 512 l 5,42,-1
 768 512 l 5,43,-1
 768 384 l 5,44,-1
 768 256 l 5,45,-1
 640 256 l 5,40,-1
768 640 m 5,46,-1
 768 768 l 5,47,-1
 896 768 l 5,48,-1
 896 640 l 5,49,-1
 768 640 l 5,46,-1
896 128 m 5,50,-1
 896 256 l 5,51,-1
 896 384 l 5,52,-1
 896 512 l 5,53,-1
 896 640 l 5,54,-1
 1024 640 l 5,55,-1
 1024 512 l 5,56,-1
 1024 384 l 5,57,-1
 1024 256 l 5,58,-1
 1024 128 l 5,59,-1
 896 128 l 5,50,-1
896 768 m 5,60,-1
 896 896 l 5,61,-1
 1024 896 l 5,62,-1
 1024 768 l 5,63,-1
 896 768 l 5,60,-1
1024 0 m 5,64,-1
 1024 128 l 5,65,-1
 1152 128 l 5,66,-1
 1281 128 l 5,67,-1
 1281 0 l 5,68,-1
 1152 0 l 5,69,-1
 1024 0 l 5,64,-1
1152 640 m 5,70,-1
 1152 768 l 5,71,-1
 1281 768 l 5,72,-1
 1281 640 l 5,73,-1
 1152 640 l 5,70,-1
1281 128 m 5,74,-1
 1281 256 l 5,75,-1
 1281 384 l 5,76,-1
 1281 512 l 5,77,-1
 1281 640 l 5,78,-1
 1408 640 l 5,79,-1
 1408 512 l 5,80,-1
 1408 384 l 5,81,-1
 1408 256 l 5,82,-1
 1408 128 l 5,83,-1
 1281 128 l 5,74,-1
EndSplineSet
EndChar

StartChar: uni0CB0
Encoding: 44 3248 43
Width: 896
Flags: W
LayerCount: 2
Fore
SplineSet
0 256 m 5,0,-1
 0 384 l 5,1,-1
 0 512 l 5,2,-1
 128 512 l 5,3,-1
 128 384 l 5,4,-1
 128 256 l 5,5,-1
 0 256 l 5,0,-1
128 128 m 5,6,-1
 128 256 l 5,7,-1
 256 256 l 5,8,-1
 256 128 l 5,9,-1
 128 128 l 5,6,-1
128 512 m 5,10,-1
 128 640 l 5,11,-1
 256 640 l 5,12,-1
 256 512 l 5,13,-1
 128 512 l 5,10,-1
256 0 m 5,14,-1
 256 128 l 5,15,-1
 384 128 l 5,16,-1
 512 128 l 5,17,-1
 512 0 l 5,18,-1
 384 0 l 5,19,-1
 256 0 l 5,14,-1
256 640 m 5,20,-1
 256 768 l 5,21,-1
 384 768 l 5,22,-1
 512 768 l 5,23,-1
 640 768 l 5,24,-1
 640 640 l 5,25,-1
 512 640 l 5,26,-1
 384 640 l 5,27,-1
 256 640 l 5,20,-1
512 128 m 5,28,-1
 512 256 l 5,29,-1
 640 256 l 5,30,-1
 640 128 l 5,31,-1
 512 128 l 5,28,-1
640 256 m 5,32,-1
 640 384 l 5,33,-1
 640 512 l 5,34,-1
 640 640 l 5,35,-1
 768 640 l 5,36,-1
 768 512 l 5,37,-1
 768 384 l 5,38,-1
 768 256 l 5,39,-1
 640 256 l 5,32,-1
640 768 m 5,40,-1
 640 896 l 5,41,-1
 768 896 l 5,42,-1
 768 768 l 5,43,-1
 640 768 l 5,40,-1
EndSplineSet
EndChar

StartChar: uni0CB2
Encoding: 45 3250 44
Width: 1024
LayerCount: 2
Fore
SplineSet
0 256 m 5,0,-1
 0 384 l 5,1,-1
 0 512 l 5,2,-1
 0 640 l 5,3,-1
 0 768 l 5,4,-1
 128 768 l 5,5,-1
 128 640 l 5,6,-1
 128 512 l 5,7,-1
 128 384 l 5,8,-1
 128 256 l 5,9,-1
 0 256 l 5,0,-1
128 128 m 5,10,-1
 128 256 l 5,11,-1
 256 256 l 5,12,-1
 256 128 l 5,13,-1
 128 128 l 5,10,-1
128 768 m 5,14,-1
 128 896 l 5,15,-1
 256 896 l 5,16,-1
 256 768 l 5,17,-1
 128 768 l 5,14,-1
256 0 m 5,18,-1
 256 128 l 5,19,-1
 384 128 l 5,20,-1
 512 128 l 5,21,-1
 640 128 l 5,22,-1
 640 0 l 5,23,-1
 512 0 l 5,24,-1
 384 0 l 5,25,-1
 256 0 l 5,18,-1
256 640 m 5,26,-1
 256 768 l 5,27,-1
 384 768 l 5,28,-1
 384 640 l 5,29,-1
 256 640 l 5,26,-1
640 128 m 5,30,-1
 640 256 l 5,31,-1
 768 256 l 5,32,-1
 768 128 l 5,33,-1
 640 128 l 5,30,-1
640 768 m 5,34,-1
 640 896 l 5,35,-1
 768 896 l 5,36,-1
 768 768 l 5,37,-1
 640 768 l 5,34,-1
768 256 m 5,38,-1
 768 384 l 5,39,-1
 768 512 l 5,40,-1
 768 640 l 5,41,-1
 768 768 l 5,42,-1
 896 768 l 5,43,-1
 896 640 l 5,44,-1
 896 512 l 5,45,-1
 896 384 l 5,46,-1
 896 256 l 5,47,-1
 768 256 l 5,38,-1
EndSplineSet
EndChar

StartChar: uni0CB3
Encoding: 46 3251 45
Width: 895
VWidth: 1280
Flags: W
LayerCount: 2
Fore
SplineSet
0 640 m 1,0,-1
 128 640 l 1,1,-1
 128 768 l 1,2,-1
 0 768 l 1,3,-1
 0 640 l 1,0,-1
128 128 m 1,4,-1
 256 128 l 1,5,-1
 256 256 l 1,6,-1
 256 384 l 1,7,-1
 128 384 l 1,8,-1
 128 256 l 1,9,-1
 128 128 l 1,4,-1
128 512 m 1,10,-1
 256 512 l 1,11,-1
 256 640 l 1,12,-1
 128 640 l 1,13,-1
 128 512 l 1,10,-1
128 768 m 1,14,-1
 256 768 l 1,15,-1
 256 896 l 1,16,-1
 128 896 l 1,17,-1
 128 768 l 1,14,-1
256 0 m 1,18,-1
 384 0 l 1,19,-1
 512 0 l 1,20,-1
 512 128 l 1,21,-1
 384 128 l 1,22,-1
 256 128 l 1,23,-1
 256 0 l 1,18,-1
256 384 m 1,24,-1
 384 384 l 1,25,-1
 512 384 l 1,26,-1
 512 512 l 1,27,-1
 384 512 l 1,28,-1
 256 512 l 1,29,-1
 256 384 l 1,24,-1
512 128 m 1,30,-1
 640 128 l 1,31,-1
 640 256 l 1,32,-1
 640 384 l 1,33,-1
 512 384 l 1,34,-1
 512 256 l 1,35,-1
 512 128 l 1,30,-1
512 512 m 1,36,-1
 640 512 l 1,37,-1
 640 640 l 1,38,-1
 640 768 l 1,39,-1
 512 768 l 1,40,-1
 512 640 l 1,41,-1
 512 512 l 1,36,-1
640 768 m 1,42,-1
 768 768 l 1,43,-1
 768 896 l 1,44,-1
 640 896 l 1,45,-1
 640 768 l 1,42,-1
EndSplineSet
EndChar

StartChar: uni0CB5
Encoding: 47 3253 46
Width: 1024
LayerCount: 2
Fore
SplineSet
0 128 m 5,0,-1
 0 256 l 5,1,-1
 0 384 l 5,2,-1
 128 384 l 5,3,-1
 128 256 l 5,4,-1
 128 128 l 5,5,-1
 0 128 l 5,0,-1
128 0 m 5,6,-1
 128 128 l 5,7,-1
 256 128 l 5,8,-1
 384 128 l 5,9,-1
 384 0 l 5,10,-1
 256 0 l 5,11,-1
 128 0 l 5,6,-1
128 384 m 5,12,-1
 128 512 l 5,13,-1
 256 512 l 5,14,-1
 256 384 l 5,15,-1
 128 384 l 5,12,-1
256 640 m 5,16,-1
 256 768 l 5,17,-1
 384 768 l 5,18,-1
 512 768 l 5,19,-1
 640 768 l 5,20,-1
 768 768 l 5,21,-1
 768 640 l 5,22,-1
 640 640 l 5,23,-1
 512 640 l 5,24,-1
 384 640 l 5,25,-1
 256 640 l 5,16,-1
384 128 m 5,26,-1
 384 256 l 5,27,-1
 512 256 l 5,28,-1
 512 128 l 5,29,-1
 384 128 l 5,26,-1
512 0 m 5,30,-1
 512 128 l 5,31,-1
 640 128 l 5,32,-1
 768 128 l 5,33,-1
 768 0 l 5,34,-1
 640 0 l 5,35,-1
 512 0 l 5,30,-1
768 128 m 5,36,-1
 768 256 l 5,37,-1
 768 384 l 5,38,-1
 768 512 l 5,39,-1
 768 640 l 5,40,-1
 896 640 l 5,41,-1
 896 512 l 5,42,-1
 896 384 l 5,43,-1
 896 256 l 5,44,-1
 896 128 l 5,45,-1
 768 128 l 5,36,-1
768 768 m 5,46,-1
 768 896 l 5,47,-1
 896 896 l 5,48,-1
 896 768 l 5,49,-1
 768 768 l 5,46,-1
EndSplineSet
EndChar

StartChar: uni0CB6
Encoding: 48 3254 47
Width: 767
VWidth: 1280
Flags: W
LayerCount: 2
Fore
SplineSet
0 512 m 1,0,-1
 128 512 l 1,1,-1
 256 512 l 1,2,-1
 256 640 l 1,3,-1
 128 640 l 1,4,-1
 0 640 l 1,5,-1
 0 512 l 1,0,-1
128 128 m 1,6,-1
 256 128 l 1,7,-1
 256 256 l 1,8,-1
 256 384 l 1,9,-1
 128 384 l 1,10,-1
 128 256 l 1,11,-1
 128 128 l 1,6,-1
256 0 m 1,12,-1
 384 0 l 1,13,-1
 512 0 l 1,14,-1
 512 128 l 1,15,-1
 384 128 l 1,16,-1
 256 128 l 1,17,-1
 256 0 l 1,12,-1
256 384 m 1,18,-1
 384 384 l 1,19,-1
 512 384 l 1,20,-1
 512 512 l 1,21,-1
 384 512 l 1,22,-1
 256 512 l 1,23,-1
 256 384 l 1,18,-1
384 640 m 1,24,-1
 512 640 l 1,25,-1
 512 768 l 1,26,-1
 384 768 l 1,27,-1
 384 640 l 1,24,-1
512 128 m 1,28,-1
 640 128 l 1,29,-1
 640 256 l 1,30,-1
 640 384 l 1,31,-1
 512 384 l 1,32,-1
 512 256 l 1,33,-1
 512 128 l 1,28,-1
512 512 m 1,34,-1
 640 512 l 1,35,-1
 640 640 l 1,36,-1
 512 640 l 1,37,-1
 512 512 l 1,34,-1
512 768 m 1,38,-1
 640 768 l 1,39,-1
 640 896 l 1,40,-1
 512 896 l 1,41,-1
 512 768 l 1,38,-1
EndSplineSet
EndChar

StartChar: uni0CB7
Encoding: 49 3255 48
Width: 1024
LayerCount: 2
Fore
SplineSet
0 128 m 1,0,-1
 0 256 l 1,1,-1
 0 384 l 1,2,-1
 128 384 l 1,3,-1
 128 256 l 1,4,-1
 128 128 l 1,5,-1
 0 128 l 1,0,-1
128 0 m 1,6,-1
 128 128 l 1,7,-1
 256 128 l 1,8,-1
 256 0 l 1,9,-1
 128 0 l 1,6,-1
128 384 m 1,10,-1
 128 512 l 1,11,-1
 256 512 l 1,12,-1
 256 384 l 1,13,-1
 128 384 l 1,10,-1
256 640 m 1,14,-1
 256 768 l 1,15,-1
 384 768 l 1,16,-1
 512 768 l 1,17,-1
 640 768 l 1,18,-1
 640 640 l 1,19,-1
 512 640 l 1,20,-1
 512 512 l 1,21,-1
 384 512 l 1,22,-1
 384 640 l 1,23,-1
 256 640 l 1,14,-1
256 128 m 1,24,-1
 256 256 l 1,25,-1
 384 256 l 1,26,-1
 384 128 l 1,27,-1
 256 128 l 1,24,-1
384 0 m 1,28,-1
 384 128 l 1,29,-1
 512 128 l 1,30,-1
 640 128 l 1,31,-1
 640 0 l 1,32,-1
 512 0 l 1,33,-1
 384 0 l 1,28,-1
512 256 m 1,34,-1
 512 384 l 1,35,-1
 640 384 l 1,36,-1
 640 256 l 1,37,-1
 512 256 l 1,34,-1
640 768 m 1,38,-1
 640 896 l 1,39,-1
 768 896 l 1,40,-1
 768 768 l 1,41,-1
 640 768 l 1,38,-1
640 128 m 1,42,-1
 640 256 l 1,43,-1
 768 256 l 1,44,-1
 768 128 l 1,45,-1
 640 128 l 1,42,-1
768 0 m 1,46,-1
 768 128 l 1,47,-1
 896 128 l 1,48,-1
 896 0 l 1,49,-1
 768 0 l 1,46,-1
768 256 m 1,50,-1
 768 384 l 1,51,-1
 896 384 l 1,52,-1
 896 256 l 1,53,-1
 768 256 l 1,50,-1
EndSplineSet
EndChar

StartChar: uni0CB8
Encoding: 50 3256 49
Width: 896
Flags: W
LayerCount: 2
Fore
SplineSet
0 128 m 5,0,-1
 0 256 l 5,1,-1
 0 384 l 5,2,-1
 128 384 l 5,3,-1
 128 256 l 5,4,-1
 128 128 l 5,5,-1
 0 128 l 5,0,-1
128 0 m 5,6,-1
 128 128 l 5,7,-1
 256 128 l 5,8,-1
 256 0 l 5,9,-1
 128 0 l 5,6,-1
128 384 m 5,10,-1
 128 512 l 5,11,-1
 256 512 l 5,12,-1
 256 384 l 5,13,-1
 128 384 l 5,10,-1
256 256 m 5,14,-1
 256 384 l 5,15,-1
 384 384 l 5,16,-1
 384 256 l 5,17,-1
 256 256 l 5,14,-1
256 640 m 5,18,-1
 256 768 l 5,19,-1
 384 768 l 5,20,-1
 512 768 l 5,21,-1
 640 768 l 5,22,-1
 640 640 l 5,23,-1
 512 640 l 5,24,-1
 512 512 l 5,25,-1
 384 512 l 5,26,-1
 384 640 l 5,27,-1
 256 640 l 5,18,-1
384 128 m 5,28,-1
 384 256 l 5,29,-1
 512 256 l 5,30,-1
 512 128 l 5,31,-1
 384 128 l 5,28,-1
512 0 m 5,32,-1
 512 128 l 5,33,-1
 640 128 l 5,34,-1
 640 0 l 5,35,-1
 512 0 l 5,32,-1
640 128 m 5,36,-1
 640 256 l 5,37,-1
 640 384 l 5,38,-1
 640 512 l 5,39,-1
 768 512 l 5,40,-1
 768 384 l 5,41,-1
 768 256 l 5,42,-1
 768 128 l 5,43,-1
 640 128 l 5,36,-1
640 768 m 5,44,-1
 640 896 l 5,45,-1
 768 896 l 5,46,-1
 768 768 l 5,47,-1
 640 768 l 5,44,-1
EndSplineSet
EndChar

StartChar: uni0CB9
Encoding: 51 3257 50
Width: 1024
LayerCount: 2
Fore
SplineSet
0 128 m 1,0,-1
 0 256 l 1,1,-1
 0 384 l 1,2,-1
 128 384 l 1,3,-1
 128 256 l 1,4,-1
 128 128 l 1,5,-1
 0 128 l 1,0,-1
128 0 m 1,6,-1
 128 128 l 1,7,-1
 256 128 l 1,8,-1
 384 128 l 1,9,-1
 384 0 l 1,10,-1
 256 0 l 1,11,-1
 128 0 l 1,6,-1
128 384 m 1,12,-1
 128 512 l 1,13,-1
 256 512 l 1,14,-1
 384 512 l 1,15,-1
 384 640 l 1,16,-1
 256 640 l 1,17,-1
 128 640 l 1,18,-1
 128 768 l 1,19,-1
 256 768 l 1,20,-1
 384 768 l 1,21,-1
 512 768 l 1,22,-1
 640 768 l 1,23,-1
 768 768 l 1,24,-1
 768 640 l 1,25,-1
 640 640 l 1,26,-1
 512 640 l 1,27,-1
 512 512 l 1,28,-1
 640 512 l 1,29,-1
 768 512 l 1,30,-1
 768 384 l 1,31,-1
 640 384 l 1,32,-1
 512 384 l 1,33,-1
 512 256 l 1,34,-1
 512 128 l 1,35,-1
 384 128 l 1,36,-1
 384 256 l 1,37,-1
 384 384 l 1,38,-1
 256 384 l 1,39,-1
 128 384 l 1,12,-1
512 0 m 1,40,-1
 512 128 l 1,41,-1
 640 128 l 1,42,-1
 768 128 l 1,43,-1
 768 0 l 1,44,-1
 640 0 l 1,45,-1
 512 0 l 1,40,-1
768 128 m 1,46,-1
 768 256 l 1,47,-1
 768 384 l 1,48,-1
 896 384 l 1,49,-1
 896 256 l 1,50,-1
 896 128 l 1,51,-1
 768 128 l 1,46,-1
768 768 m 1,52,-1
 768 896 l 1,53,-1
 896 896 l 1,54,-1
 896 768 l 1,55,-1
 768 768 l 1,52,-1
EndSplineSet
EndChar

StartChar: uni0CBD
Encoding: 52 3261 51
Width: 640
Flags: W
LayerCount: 2
Fore
SplineSet
0 128 m 5,0,-1
 0 256 l 5,1,-1
 128 256 l 5,2,-1
 128 128 l 5,3,-1
 0 128 l 5,0,-1
0 640 m 5,4,-1
 0 768 l 5,5,-1
 128 768 l 5,6,-1
 128 640 l 5,7,-1
 0 640 l 5,4,-1
128 0 m 5,8,-1
 128 128 l 5,9,-1
 256 128 l 5,10,-1
 384 128 l 5,11,-1
 384 0 l 5,12,-1
 256 0 l 5,13,-1
 128 0 l 5,8,-1
128 512 m 5,14,-1
 128 640 l 5,15,-1
 256 640 l 5,16,-1
 256 512 l 5,17,-1
 128 512 l 5,14,-1
128 768 m 5,18,-1
 128 896 l 5,19,-1
 256 896 l 5,20,-1
 384 896 l 5,21,-1
 512 896 l 5,22,-1
 512 768 l 5,23,-1
 384 768 l 5,24,-1
 256 768 l 5,25,-1
 128 768 l 5,18,-1
256 384 m 5,26,-1
 256 512 l 5,27,-1
 384 512 l 5,28,-1
 384 384 l 5,29,-1
 256 384 l 5,26,-1
384 128 m 5,30,-1
 384 256 l 5,31,-1
 384 384 l 5,32,-1
 512 384 l 5,33,-1
 512 256 l 5,34,-1
 512 128 l 5,35,-1
 384 128 l 5,30,-1
EndSplineSet
EndChar

StartChar: uni0CE0
Encoding: 69 3296 52
Width: 1536
Flags: W
LayerCount: 2
Fore
SplineSet
0 128 m 5,0,-1
 0 256 l 5,1,-1
 128 256 l 5,2,-1
 128 128 l 5,3,-1
 0 128 l 5,0,-1
0 640 m 5,4,-1
 0 768 l 5,5,-1
 128 768 l 5,6,-1
 128 640 l 5,7,-1
 0 640 l 5,4,-1
128 0 m 5,8,-1
 128 128 l 5,9,-1
 256 128 l 5,10,-1
 256 0 l 5,11,-1
 128 0 l 5,8,-1
128 768 m 5,12,-1
 128 896 l 5,13,-1
 256 896 l 5,14,-1
 256 768 l 5,15,-1
 128 768 l 5,12,-1
256 128 m 5,16,-1
 256 256 l 5,17,-1
 256 384 l 5,18,-1
 256 512 l 5,19,-1
 256 640 l 5,20,-1
 256 768 l 5,21,-1
 384 768 l 5,22,-1
 384 640 l 5,23,-1
 384 512 l 5,24,-1
 384 384 l 5,25,-1
 384 256 l 5,26,-1
 384 128 l 5,27,-1
 256 128 l 5,16,-1
384 0 m 5,28,-1
 384 128 l 5,29,-1
 512 128 l 5,30,-1
 640 128 l 5,31,-1
 640 0 l 5,32,-1
 512 0 l 5,33,-1
 384 0 l 5,28,-1
512 640 m 5,34,-1
 512 768 l 5,35,-1
 640 768 l 5,36,-1
 640 640 l 5,37,-1
 512 640 l 5,34,-1
640 128 m 5,38,-1
 640 256 l 5,39,-1
 640 384 l 5,40,-1
 640 512 l 5,41,-1
 640 640 l 5,42,-1
 768 640 l 5,43,-1
 768 512 l 5,44,-1
 768 384 l 5,45,-1
 768 256 l 5,46,-1
 768 128 l 5,47,-1
 640 128 l 5,38,-1
640 768 m 5,48,-1
 640 896 l 5,49,-1
 768 896 l 5,50,-1
 768 768 l 5,51,-1
 640 768 l 5,48,-1
768 0 m 5,52,-1
 768 128 l 5,53,-1
 896 128 l 5,54,-1
 896 0 l 5,55,-1
 768 0 l 5,52,-1
896 128 m 5,56,-1
 896 256 l 5,57,-1
 896 384 l 5,58,-1
 896 512 l 5,59,-1
 896 640 l 5,60,-1
 1024 640 l 5,61,-1
 1024 512 l 5,62,-1
 1024 384 l 5,63,-1
 1024 256 l 5,64,-1
 1024 128 l 5,65,-1
 896 128 l 5,56,-1
1024 640 m 5,66,-1
 1024 768 l 5,67,-1
 1152 768 l 5,68,-1
 1281 768 l 5,69,-1
 1281 640 l 5,70,-1
 1152 640 l 5,71,-1
 1024 640 l 5,66,-1
1152 0 m 5,72,-1
 1152 128 l 5,73,-1
 1281 128 l 5,74,-1
 1281 0 l 5,75,-1
 1152 0 l 5,72,-1
1281 128 m 5,76,-1
 1281 256 l 5,77,-1
 1281 384 l 5,78,-1
 1281 512 l 5,79,-1
 1281 640 l 5,80,-1
 1408 640 l 5,81,-1
 1408 512 l 5,82,-1
 1408 384 l 5,83,-1
 1408 256 l 5,84,-1
 1408 128 l 5,85,-1
 1281 128 l 5,76,-1
EndSplineSet
EndChar

StartChar: uni0CE1
Encoding: 70 3297 53
Width: 1024
LayerCount: 2
Fore
SplineSet
0 512 m 5,0,-1
 0 640 l 5,1,-1
 0 768 l 5,2,-1
 128 768 l 5,3,-1
 128 640 l 5,4,-1
 128 512 l 5,5,-1
 0 512 l 5,0,-1
128 768 m 5,6,-1
 128 896 l 5,7,-1
 256 896 l 5,8,-1
 384 896 l 5,9,-1
 384 768 l 5,10,-1
 256 768 l 5,11,-1
 128 768 l 5,6,-1
384 -128 m 5,12,-1
 384 0 l 5,13,-1
 512 0 l 5,14,-1
 512 -128 l 5,15,-1
 384 -128 l 5,12,-1
384 128 m 5,16,-1
 384 256 l 5,17,-1
 512 256 l 5,18,-1
 512 128 l 5,19,-1
 384 128 l 5,16,-1
384 512 m 5,20,-1
 384 640 l 5,21,-1
 384 768 l 5,22,-1
 512 768 l 5,23,-1
 512 640 l 5,24,-1
 512 512 l 5,25,-1
 384 512 l 5,20,-1
512 -256 m 5,26,-1
 512 -128 l 5,27,-1
 640 -128 l 5,28,-1
 768 -128 l 5,29,-1
 768 -256 l 5,30,-1
 640 -256 l 5,31,-1
 512 -256 l 5,26,-1
512 0 m 5,32,-1
 512 128 l 5,33,-1
 640 128 l 5,34,-1
 640 0 l 5,35,-1
 512 0 l 5,32,-1
512 256 m 5,36,-1
 512 384 l 5,37,-1
 640 384 l 5,38,-1
 768 384 l 5,39,-1
 768 256 l 5,40,-1
 640 256 l 5,41,-1
 512 256 l 5,36,-1
512 768 m 5,42,-1
 512 896 l 5,43,-1
 640 896 l 5,44,-1
 768 896 l 5,45,-1
 768 768 l 5,46,-1
 640 768 l 5,47,-1
 512 768 l 5,42,-1
768 -128 m 5,48,-1
 768 0 l 5,49,-1
 896 0 l 5,50,-1
 896 -128 l 5,51,-1
 768 -128 l 5,48,-1
768 384 m 5,52,-1
 768 512 l 5,53,-1
 768 640 l 5,54,-1
 768 768 l 5,55,-1
 896 768 l 5,56,-1
 896 640 l 5,57,-1
 896 512 l 5,58,-1
 896 384 l 5,59,-1
 768 384 l 5,52,-1
EndSplineSet
EndChar

StartChar: uni0CE6
Encoding: 71 3302 54
Width: 896
VWidth: 1280
Flags: W
LayerCount: 2
Fore
SplineSet
0 384 m 1,0,-1
 128 384 l 1,1,-1
 128 512 l 1,2,-1
 128 640 l 1,3,-1
 0 640 l 1,4,-1
 0 512 l 1,5,-1
 0 384 l 1,0,-1
128 256 m 1,6,-1
 256 256 l 1,7,-1
 256 384 l 1,8,-1
 128 384 l 1,9,-1
 128 256 l 1,6,-1
128 640 m 1,10,-1
 256 640 l 1,11,-1
 256 768 l 1,12,-1
 128 768 l 1,13,-1
 128 640 l 1,10,-1
256 128 m 1,14,-1
 384 128 l 1,15,-1
 512 128 l 1,16,-1
 512 256 l 1,17,-1
 384 256 l 1,18,-1
 256 256 l 1,19,-1
 256 128 l 1,14,-1
256 768 m 1,20,-1
 384 768 l 1,21,-1
 512 768 l 1,22,-1
 512 896 l 1,23,-1
 384 896 l 1,24,-1
 256 896 l 1,25,-1
 256 768 l 1,20,-1
512 256 m 1,26,-1
 640 256 l 1,27,-1
 640 384 l 1,28,-1
 512 384 l 1,29,-1
 512 256 l 1,26,-1
512 640 m 1,30,-1
 640 640 l 1,31,-1
 640 768 l 1,32,-1
 512 768 l 1,33,-1
 512 640 l 1,30,-1
640 384 m 1,34,-1
 768 384 l 1,35,-1
 768 512 l 1,36,-1
 768 640 l 1,37,-1
 640 640 l 1,38,-1
 640 512 l 1,39,-1
 640 384 l 1,34,-1
EndSplineSet
EndChar

StartChar: uni0CE7
Encoding: 72 3303 55
Width: 896
VWidth: 1280
Flags: W
LayerCount: 2
Fore
SplineSet
0 256 m 1,0,-1
 128 256 l 1,1,-1
 128 384 l 1,2,-1
 128 512 l 1,3,-1
 128 640 l 1,4,-1
 0 640 l 1,5,-1
 0 512 l 1,6,-1
 0 384 l 1,7,-1
 0 256 l 1,0,-1
128 128 m 1,8,-1
 256 128 l 1,9,-1
 256 256 l 1,10,-1
 128 256 l 1,11,-1
 128 128 l 1,8,-1
128 640 m 1,12,-1
 256 640 l 1,13,-1
 256 768 l 1,14,-1
 128 768 l 1,15,-1
 128 640 l 1,12,-1
256 768 m 1,16,-1
 384 768 l 1,17,-1
 512 768 l 1,18,-1
 640 768 l 1,19,-1
 640 896 l 1,20,-1
 512 896 l 1,21,-1
 384 896 l 1,22,-1
 256 896 l 1,23,-1
 256 768 l 1,16,-1
512 128 m 1,24,-1
 640 128 l 1,25,-1
 640 256 l 1,26,-1
 512 256 l 1,27,-1
 512 128 l 1,24,-1
640 256 m 1,28,-1
 768 256 l 1,29,-1
 768 384 l 1,30,-1
 768 512 l 1,31,-1
 768 640 l 1,32,-1
 768 768 l 1,33,-1
 640 768 l 1,34,-1
 640 640 l 1,35,-1
 640 512 l 1,36,-1
 640 384 l 1,37,-1
 640 256 l 1,28,-1
EndSplineSet
EndChar

StartChar: uni0CE8
Encoding: 73 3304 56
Width: 1024
VWidth: 1280
Flags: W
LayerCount: 2
Fore
SplineSet
0 128 m 1,0,-1
 128 128 l 1,1,-1
 256 128 l 1,2,-1
 384 128 l 1,3,-1
 512 128 l 1,4,-1
 640 128 l 1,5,-1
 768 128 l 1,6,-1
 768 256 l 1,7,-1
 640 256 l 1,8,-1
 512 256 l 1,9,-1
 384 256 l 1,10,-1
 256 256 l 1,11,-1
 128 256 l 1,12,-1
 0 256 l 1,13,-1
 0 128 l 1,0,-1
512 384 m 1,14,-1
 640 384 l 1,15,-1
 640 512 l 1,16,-1
 512 512 l 1,17,-1
 512 384 l 1,14,-1
640 512 m 1,18,-1
 768 512 l 1,19,-1
 768 640 l 1,20,-1
 640 640 l 1,21,-1
 640 512 l 1,18,-1
768 256 m 1,22,-1
 896 256 l 1,23,-1
 896 384 l 1,24,-1
 896 512 l 1,25,-1
 768 512 l 1,26,-1
 768 384 l 1,27,-1
 768 256 l 1,22,-1
EndSplineSet
EndChar

StartChar: uni0CE9
Encoding: 74 3305 57
Width: 896
VWidth: 1280
Flags: W
LayerCount: 2
Fore
SplineSet
0 128 m 1,0,-1
 128 128 l 1,1,-1
 128 256 l 1,2,-1
 0 256 l 1,3,-1
 0 128 l 1,0,-1
128 0 m 1,4,-1
 256 0 l 1,5,-1
 384 0 l 1,6,-1
 384 128 l 1,7,-1
 256 128 l 1,8,-1
 128 128 l 1,9,-1
 128 0 l 1,4,-1
128 256 m 1,10,-1
 256 256 l 1,11,-1
 384 256 l 1,12,-1
 384 384 l 1,13,-1
 256 384 l 1,14,-1
 128 384 l 1,15,-1
 128 256 l 1,10,-1
128 640 m 1,16,-1
 256 640 l 1,17,-1
 256 768 l 1,18,-1
 128 768 l 1,19,-1
 128 640 l 1,16,-1
256 512 m 1,20,-1
 384 512 l 1,21,-1
 384 640 l 1,22,-1
 256 640 l 1,23,-1
 256 512 l 1,20,-1
256 768 m 1,24,-1
 384 768 l 1,25,-1
 512 768 l 1,26,-1
 512 896 l 1,27,-1
 384 896 l 1,28,-1
 256 896 l 1,29,-1
 256 768 l 1,24,-1
384 128 m 1,30,-1
 512 128 l 1,31,-1
 512 256 l 1,32,-1
 384 256 l 1,33,-1
 384 128 l 1,30,-1
512 0 m 1,34,-1
 640 0 l 1,35,-1
 640 128 l 1,36,-1
 512 128 l 1,37,-1
 512 0 l 1,34,-1
512 256 m 1,38,-1
 640 256 l 1,39,-1
 640 384 l 1,40,-1
 640 512 l 1,41,-1
 640 640 l 1,42,-1
 640 768 l 1,43,-1
 512 768 l 1,44,-1
 512 640 l 1,45,-1
 512 512 l 1,46,-1
 512 384 l 1,47,-1
 512 256 l 1,38,-1
640 -128 m 1,48,-1
 768 -128 l 1,49,-1
 768 0 l 1,50,-1
 640 0 l 1,51,-1
 640 -128 l 1,48,-1
EndSplineSet
EndChar

StartChar: uni0CEA
Encoding: 75 3306 58
Width: 768
VWidth: 1280
Flags: W
LayerCount: 2
Fore
SplineSet
0 640 m 1,0,-1
 128 640 l 1,1,-1
 128 768 l 1,2,-1
 0 768 l 1,3,-1
 0 640 l 1,0,-1
128 128 m 1,4,-1
 256 128 l 1,5,-1
 256 256 l 1,6,-1
 256 384 l 1,7,-1
 128 384 l 1,8,-1
 128 256 l 1,9,-1
 128 128 l 1,4,-1
128 512 m 1,10,-1
 256 512 l 1,11,-1
 256 640 l 1,12,-1
 128 640 l 1,13,-1
 128 512 l 1,10,-1
128 768 m 1,14,-1
 256 768 l 1,15,-1
 256 896 l 1,16,-1
 128 896 l 1,17,-1
 128 768 l 1,14,-1
256 0 m 1,18,-1
 384 0 l 1,19,-1
 512 0 l 1,20,-1
 512 128 l 1,21,-1
 384 128 l 1,22,-1
 256 128 l 1,23,-1
 256 0 l 1,18,-1
256 384 m 1,24,-1
 384 384 l 1,25,-1
 512 384 l 1,26,-1
 512 512 l 1,27,-1
 384 512 l 1,28,-1
 256 512 l 1,29,-1
 256 384 l 1,24,-1
512 128 m 1,30,-1
 640 128 l 1,31,-1
 640 256 l 1,32,-1
 640 384 l 1,33,-1
 512 384 l 1,34,-1
 512 256 l 1,35,-1
 512 128 l 1,30,-1
512 512 m 1,36,-1
 640 512 l 1,37,-1
 640 640 l 1,38,-1
 640 768 l 1,39,-1
 640 896 l 1,40,-1
 512 896 l 1,41,-1
 512 768 l 1,42,-1
 512 640 l 1,43,-1
 512 512 l 1,36,-1
EndSplineSet
EndChar

StartChar: uni0CEB
Encoding: 76 3307 59
Width: 1024
VWidth: 1280
Flags: W
LayerCount: 2
Fore
SplineSet
-128 128 m 1,0,-1
 0 128 l 1,1,-1
 0 256 l 1,2,-1
 -128 256 l 1,3,-1
 -128 128 l 1,0,-1
0 0 m 1,4,-1
 128 0 l 1,5,-1
 128 128 l 1,6,-1
 0 128 l 1,7,-1
 0 0 l 1,4,-1
0 256 m 1,8,-1
 128 256 l 1,9,-1
 128 384 l 1,10,-1
 0 384 l 1,11,-1
 0 256 l 1,8,-1
0 640 m 1,12,-1
 128 640 l 1,13,-1
 128 768 l 1,14,-1
 0 768 l 1,15,-1
 0 640 l 1,12,-1
128 128 m 1,16,-1
 256 128 l 1,17,-1
 256 256 l 1,18,-1
 128 256 l 1,19,-1
 128 128 l 1,16,-1
128 768 m 1,20,-1
 256 768 l 1,21,-1
 256 896 l 1,22,-1
 128 896 l 1,23,-1
 128 768 l 1,20,-1
256 0 m 1,24,-1
 384 0 l 1,25,-1
 512 0 l 1,26,-1
 512 128 l 1,27,-1
 384 128 l 1,28,-1
 256 128 l 1,29,-1
 256 0 l 1,24,-1
256 256 m 1,30,-1
 384 256 l 1,31,-1
 384 384 l 1,32,-1
 384 512 l 1,33,-1
 384 640 l 1,34,-1
 384 768 l 1,35,-1
 256 768 l 1,36,-1
 256 640 l 1,37,-1
 256 512 l 1,38,-1
 256 384 l 1,39,-1
 256 256 l 1,30,-1
512 128 m 1,40,-1
 640 128 l 1,41,-1
 640 256 l 1,42,-1
 512 256 l 1,43,-1
 512 128 l 1,40,-1
512 384 m 1,44,-1
 640 384 l 1,45,-1
 640 512 l 1,46,-1
 640 640 l 1,47,-1
 640 768 l 1,48,-1
 512 768 l 1,49,-1
 512 640 l 1,50,-1
 512 512 l 1,51,-1
 512 384 l 1,44,-1
640 256 m 1,52,-1
 768 256 l 1,53,-1
 768 384 l 1,54,-1
 640 384 l 1,55,-1
 640 256 l 1,52,-1
640 768 m 1,56,-1
 768 768 l 1,57,-1
 768 896 l 1,58,-1
 640 896 l 1,59,-1
 640 768 l 1,56,-1
768 0 m 1,60,-1
 896 0 l 1,61,-1
 896 128 l 1,62,-1
 896 256 l 1,63,-1
 768 256 l 1,64,-1
 768 128 l 1,65,-1
 768 0 l 1,60,-1
768 384 m 1,66,-1
 896 384 l 1,67,-1
 896 512 l 1,68,-1
 896 640 l 1,69,-1
 896 768 l 1,70,-1
 768 768 l 1,71,-1
 768 640 l 1,72,-1
 768 512 l 1,73,-1
 768 384 l 1,66,-1
EndSplineSet
EndChar

StartChar: uni0CEC
Encoding: 77 3308 60
Width: 1024
VWidth: 1280
Flags: W
LayerCount: 2
Fore
SplineSet
0 128 m 1,0,-1
 128 128 l 1,1,-1
 128 256 l 1,2,-1
 128 384 l 1,3,-1
 0 384 l 1,4,-1
 0 256 l 1,5,-1
 0 128 l 1,0,-1
0 512 m 1,6,-1
 128 512 l 1,7,-1
 128 640 l 1,8,-1
 128 768 l 1,9,-1
 0 768 l 1,10,-1
 0 640 l 1,11,-1
 0 512 l 1,6,-1
128 0 m 1,12,-1
 256 0 l 1,13,-1
 384 0 l 1,14,-1
 512 0 l 1,15,-1
 640 0 l 1,16,-1
 768 0 l 1,17,-1
 896 0 l 1,18,-1
 896 128 l 1,19,-1
 768 128 l 1,20,-1
 640 128 l 1,21,-1
 512 128 l 1,22,-1
 384 128 l 1,23,-1
 256 128 l 1,24,-1
 128 128 l 1,25,-1
 128 0 l 1,12,-1
128 384 m 1,26,-1
 256 384 l 1,27,-1
 256 512 l 1,28,-1
 128 512 l 1,29,-1
 128 384 l 1,26,-1
128 768 m 1,30,-1
 256 768 l 1,31,-1
 256 896 l 1,32,-1
 128 896 l 1,33,-1
 128 768 l 1,30,-1
256 256 m 1,34,-1
 384 256 l 1,35,-1
 512 256 l 1,36,-1
 512 384 l 1,37,-1
 384 384 l 1,38,-1
 256 384 l 1,39,-1
 256 256 l 1,34,-1
256 512 m 1,40,-1
 384 512 l 1,41,-1
 512 512 l 1,42,-1
 512 640 l 1,43,-1
 384 640 l 1,44,-1
 256 640 l 1,45,-1
 256 512 l 1,40,-1
512 384 m 1,46,-1
 640 384 l 1,47,-1
 640 512 l 1,48,-1
 512 512 l 1,49,-1
 512 384 l 1,46,-1
EndSplineSet
EndChar

StartChar: uni0CED
Encoding: 78 3309 61
Width: 896
VWidth: 1280
Flags: W
LayerCount: 2
Fore
SplineSet
0 128 m 1,0,-1
 128 128 l 1,1,-1
 128 256 l 1,2,-1
 0 256 l 1,3,-1
 0 128 l 1,0,-1
0 640 m 1,4,-1
 128 640 l 1,5,-1
 128 768 l 1,6,-1
 0 768 l 1,7,-1
 0 640 l 1,4,-1
128 0 m 1,8,-1
 256 0 l 1,9,-1
 384 0 l 1,10,-1
 512 0 l 1,11,-1
 640 0 l 1,12,-1
 768 0 l 1,13,-1
 768 128 l 1,14,-1
 640 128 l 1,15,-1
 512 128 l 1,16,-1
 384 128 l 1,17,-1
 256 128 l 1,18,-1
 128 128 l 1,19,-1
 128 0 l 1,8,-1
128 256 m 1,20,-1
 256 256 l 1,21,-1
 256 384 l 1,22,-1
 128 384 l 1,23,-1
 128 256 l 1,20,-1
128 768 m 1,24,-1
 256 768 l 1,25,-1
 256 896 l 1,26,-1
 128 896 l 1,27,-1
 128 768 l 1,24,-1
256 384 m 1,28,-1
 384 384 l 1,29,-1
 384 512 l 1,30,-1
 384 640 l 1,31,-1
 384 768 l 1,32,-1
 256 768 l 1,33,-1
 256 640 l 1,34,-1
 256 512 l 1,35,-1
 256 384 l 1,28,-1
EndSplineSet
EndChar

StartChar: uni0CEE
Encoding: 79 3310 62
Width: 1280
VWidth: 1280
Flags: W
LayerCount: 2
Fore
SplineSet
0 256 m 1,0,-1
 128 256 l 1,1,-1
 128 384 l 1,2,-1
 128 512 l 1,3,-1
 128 640 l 1,4,-1
 128 768 l 1,5,-1
 0 768 l 1,6,-1
 0 640 l 1,7,-1
 0 512 l 1,8,-1
 0 384 l 1,9,-1
 0 256 l 1,0,-1
128 128 m 1,10,-1
 256 128 l 1,11,-1
 256 256 l 1,12,-1
 128 256 l 1,13,-1
 128 128 l 1,10,-1
128 768 m 1,14,-1
 256 768 l 1,15,-1
 256 896 l 1,16,-1
 128 896 l 1,17,-1
 128 768 l 1,14,-1
256 0 m 1,18,-1
 384 0 l 1,19,-1
 512 0 l 1,20,-1
 640 0 l 1,21,-1
 640 128 l 1,22,-1
 512 128 l 1,23,-1
 384 128 l 1,24,-1
 256 128 l 1,25,-1
 256 0 l 1,18,-1
256 640 m 1,26,-1
 384 640 l 1,27,-1
 384 768 l 1,28,-1
 256 768 l 1,29,-1
 256 640 l 1,26,-1
640 128 m 1,30,-1
 768 128 l 1,31,-1
 768 256 l 1,32,-1
 640 256 l 1,33,-1
 640 128 l 1,30,-1
768 256 m 1,34,-1
 896 256 l 1,35,-1
 896 384 l 1,36,-1
 896 512 l 1,37,-1
 896 640 l 1,38,-1
 768 640 l 1,39,-1
 768 512 l 1,40,-1
 768 384 l 1,41,-1
 768 256 l 1,34,-1
896 640 m 1,42,-1
 1024 640 l 1,43,-1
 1152 640 l 1,44,-1
 1152 768 l 1,45,-1
 1024 768 l 1,46,-1
 896 768 l 1,47,-1
 896 640 l 1,42,-1
EndSplineSet
EndChar

StartChar: uni0CEF
Encoding: 80 3311 63
Width: 1024
VWidth: 1280
Flags: W
LayerCount: 2
Fore
SplineSet
0 128 m 1,0,-1
 128 128 l 1,1,-1
 128 256 l 1,2,-1
 128 384 l 1,3,-1
 0 384 l 1,4,-1
 0 256 l 1,5,-1
 0 128 l 1,0,-1
0 512 m 1,6,-1
 128 512 l 1,7,-1
 128 640 l 1,8,-1
 128 768 l 1,9,-1
 0 768 l 1,10,-1
 0 640 l 1,11,-1
 0 512 l 1,6,-1
128 0 m 1,12,-1
 256 0 l 1,13,-1
 256 128 l 1,14,-1
 128 128 l 1,15,-1
 128 0 l 1,12,-1
128 384 m 1,16,-1
 256 384 l 1,17,-1
 256 512 l 1,18,-1
 128 512 l 1,19,-1
 128 384 l 1,16,-1
128 768 m 1,20,-1
 256 768 l 1,21,-1
 384 768 l 1,22,-1
 512 768 l 1,23,-1
 640 768 l 1,24,-1
 768 768 l 1,25,-1
 896 768 l 1,26,-1
 896 896 l 1,27,-1
 768 896 l 1,28,-1
 640 896 l 1,29,-1
 512 896 l 1,30,-1
 384 896 l 1,31,-1
 256 896 l 1,32,-1
 128 896 l 1,33,-1
 128 768 l 1,20,-1
256 256 m 1,34,-1
 384 256 l 1,35,-1
 512 256 l 1,36,-1
 512 384 l 1,37,-1
 384 384 l 1,38,-1
 256 384 l 1,39,-1
 256 256 l 1,34,-1
256 512 m 1,40,-1
 384 512 l 1,41,-1
 512 512 l 1,42,-1
 512 640 l 1,43,-1
 384 640 l 1,44,-1
 256 640 l 1,45,-1
 256 512 l 1,40,-1
512 384 m 1,46,-1
 640 384 l 1,47,-1
 640 512 l 1,48,-1
 512 512 l 1,49,-1
 512 384 l 1,46,-1
EndSplineSet
EndChar

StartChar: uni0CBE
Encoding: 53 3262 64
Width: 512
Flags: W
LayerCount: 2
Fore
SplineSet
0 128 m 1,0,-1
 0 256 l 1,1,-1
 128 256 l 1,2,-1
 128 128 l 1,3,-1
 0 128 l 1,0,-1
-128 640 m 1,4,-1
 -128 768 l 1,5,-1
 0 768 l 1,6,-1
 128 768 l 1,7,-1
 256 768 l 1,8,-1
 256 640 l 1,9,-1
 128 640 l 1,10,-1
 0 640 l 1,11,-1
 -128 640 l 1,4,-1
128 0 m 1,12,-1
 128 128 l 1,13,-1
 256 128 l 1,14,-1
 256 0 l 1,15,-1
 128 0 l 1,12,-1
256 128 m 1,16,-1
 256 256 l 1,17,-1
 256 384 l 1,18,-1
 256 512 l 1,19,-1
 256 640 l 1,20,-1
 384 640 l 1,21,-1
 384 512 l 1,22,-1
 384 384 l 1,23,-1
 384 256 l 1,24,-1
 384 128 l 1,25,-1
 256 128 l 1,16,-1
EndSplineSet
EndChar

StartChar: uni0CBF
Encoding: 54 3263 65
Width: 512
Flags: W
LayerCount: 2
Fore
SplineSet
128 512 m 5,0,-1
 128 640 l 5,1,-1
 256 640 l 5,2,-1
 256 512 l 5,3,-1
 128 512 l 5,0,-1
256 640 m 5,4,-1
 256 768 l 5,5,-1
 384 768 l 5,6,-1
 384 640 l 5,7,-1
 256 640 l 5,4,-1
0 640 m 5,8,-1
 0 768 l 5,9,-1
 128 768 l 5,10,-1
 128 640 l 5,11,-1
 0 640 l 5,8,-1
128 768 m 5,12,-1
 128 896 l 5,13,-1
 256 896 l 5,14,-1
 256 768 l 5,15,-1
 128 768 l 5,12,-1
EndSplineSet
EndChar

StartChar: uni0CC0
Encoding: 55 3264 66
Width: 1024
Flags: W
LayerCount: 2
Fore
SplineSet
896 512 m 1,0,-1
 768 512 l 1,1,-1
 768 640 l 1,2,-1
 896 640 l 1,3,-1
 896 512 l 1,0,-1
768 640 m 1,4,-1
 640 640 l 1,5,-1
 640 768 l 1,6,-1
 768 768 l 1,7,-1
 768 640 l 1,4,-1
640 0 m 1,8,-1
 512 0 l 1,9,-1
 512 640 l 1,10,-1
 640 640 l 1,11,-1
 640 0 l 1,8,-1
128 512 m 1,12,-1
 128 640 l 1,13,-1
 256 640 l 1,14,-1
 256 512 l 1,15,-1
 128 512 l 1,12,-1
256 640 m 1,16,-1
 256 768 l 1,17,-1
 384 768 l 1,18,-1
 384 640 l 1,19,-1
 256 640 l 1,16,-1
0 640 m 1,20,-1
 0 768 l 1,21,-1
 128 768 l 1,22,-1
 128 640 l 1,23,-1
 0 640 l 1,20,-1
128 768 m 1,24,-1
 128 896 l 1,25,-1
 256 896 l 1,26,-1
 256 768 l 1,27,-1
 128 768 l 1,24,-1
EndSplineSet
EndChar

StartChar: uni0CC1
Encoding: 56 3265 67
Width: 384
Flags: W
LayerCount: 2
Fore
SplineSet
-128 0 m 1,0,-1
 -128 128 l 1,1,-1
 0 128 l 1,2,-1
 128 128 l 1,3,-1
 128 0 l 1,4,-1
 0 0 l 1,5,-1
 -128 0 l 1,0,-1
0 640 m 1,6,-1
 0 768 l 1,7,-1
 128 768 l 1,8,-1
 128 640 l 1,9,-1
 0 640 l 1,6,-1
128 128 m 1,10,-1
 128 256 l 1,11,-1
 128 384 l 1,12,-1
 128 512 l 1,13,-1
 128 640 l 1,14,-1
 257 640 l 1,15,-1
 257 512 l 1,16,-1
 257 384 l 1,17,-1
 257 256 l 1,18,-1
 257 128 l 1,19,-1
 128 128 l 1,10,-1
EndSplineSet
EndChar

StartChar: uni0CC2
Encoding: 57 3266 68
Width: 640
Flags: W
LayerCount: 2
Fore
SplineSet
-128 0 m 1,0,-1
 -128 128 l 1,1,-1
 0 128 l 1,2,-1
 0 0 l 1,3,-1
 -128 0 l 1,0,-1
0 128 m 1,4,-1
 0 256 l 1,5,-1
 0 384 l 1,6,-1
 0 512 l 1,7,-1
 0 640 l 1,8,-1
 128 640 l 1,9,-1
 128 512 l 1,10,-1
 128 384 l 1,11,-1
 128 256 l 1,12,-1
 128 128 l 1,13,-1
 0 128 l 1,4,-1
128 640 m 1,14,-1
 128 768 l 1,15,-1
 257 768 l 1,16,-1
 384 768 l 1,17,-1
 384 640 l 1,18,-1
 257 640 l 1,19,-1
 128 640 l 1,14,-1
257 0 m 1,20,-1
 257 128 l 1,21,-1
 384 128 l 1,22,-1
 384 0 l 1,23,-1
 257 0 l 1,20,-1
384 128 m 1,24,-1
 384 256 l 1,25,-1
 384 384 l 1,26,-1
 384 512 l 1,27,-1
 384 640 l 1,28,-1
 512 640 l 1,29,-1
 512 512 l 1,30,-1
 512 384 l 1,31,-1
 512 256 l 1,32,-1
 512 128 l 1,33,-1
 384 128 l 1,24,-1
EndSplineSet
EndChar

StartChar: uni0CC3
Encoding: 58 3267 69
Width: 0
Flags: W
LayerCount: 2
Fore
SplineSet
-384 -256 m 1,0,-1
 -384 -128 l 1,1,-1
 -256 -128 l 1,2,-1
 -256 -256 l 1,3,-1
 -384 -256 l 1,0,-1
-512 -384 m 1,4,-1
 -512 -256 l 1,5,-1
 -384 -256 l 1,6,-1
 -384 -384 l 1,7,-1
 -512 -384 l 1,4,-1
-128 -384 m 1,8,-1
 -128 -128 l 1,9,-1
 0 -128 l 1,10,-1
 0 -384 l 1,11,-1
 -128 -384 l 1,8,-1
-384 -512 m 1,12,-1
 -384 -384 l 1,13,-1
 -128 -384 l 1,14,-1
 -128 -512 l 1,15,-1
 -384 -512 l 1,12,-1
EndSplineSet
EndChar

StartChar: uni0CC4
Encoding: 59 3268 70
Width: 256
Flags: W
LayerCount: 2
Fore
SplineSet
0 -128 m 1,0,-1
 0 0 l 1,1,-1
 256 0 l 1,2,-1
 256 -128 l 1,3,-1
 0 -128 l 1,0,-1
-384 -256 m 1,4,-1
 -384 -128 l 1,5,-1
 -256 -128 l 1,6,-1
 -256 -256 l 1,7,-1
 -384 -256 l 1,4,-1
-512 -384 m 1,8,-1
 -512 -256 l 1,9,-1
 -384 -256 l 1,10,-1
 -384 -384 l 1,11,-1
 -512 -384 l 1,8,-1
-128 -384 m 1,12,-1
 -128 -128 l 1,13,-1
 0 -128 l 1,14,-1
 0 -384 l 1,15,-1
 -128 -384 l 1,12,-1
-384 -512 m 1,16,-1
 -384 -384 l 1,17,-1
 -128 -384 l 1,18,-1
 -128 -512 l 1,19,-1
 -384 -512 l 1,16,-1
EndSplineSet
EndChar

StartChar: uni0CC6
Encoding: 60 3270 71
Width: 0
Flags: W
LayerCount: 2
Fore
SplineSet
-512 896 m 1,0,-1
 -512 1024 l 1,1,-1
 -256 1024 l 1,2,-1
 -256 896 l 1,3,-1
 -512 896 l 1,0,-1
EndSplineSet
EndChar

StartChar: uni0CC7
Encoding: 61 3271 72
Width: 512
Flags: W
LayerCount: 2
Fore
SplineSet
384 512 m 1,0,-1
 256 512 l 1,1,-1
 256 640 l 1,2,-1
 384 640 l 1,3,-1
 384 512 l 1,0,-1
256 640 m 1,4,-1
 128 640 l 1,5,-1
 128 768 l 1,6,-1
 256 768 l 1,7,-1
 256 640 l 1,4,-1
128 0 m 1,8,-1
 0 0 l 1,9,-1
 0 640 l 1,10,-1
 128 640 l 1,11,-1
 128 0 l 1,8,-1
-512 896 m 1,12,-1
 -512 1024 l 1,13,-1
 -256 1024 l 1,14,-1
 -256 896 l 1,15,-1
 -512 896 l 1,12,-1
EndSplineSet
EndChar

StartChar: uni0CC8
Encoding: 62 3272 73
Width: 128
Flags: W
LayerCount: 2
Fore
SplineSet
-512 896 m 1,0,-1
 -512 1024 l 1,1,-1
 -256 1024 l 1,2,-1
 -256 896 l 1,3,-1
 -512 896 l 1,0,-1
0 -128 m 1,4,-1
 0 0 l 1,5,-1
 128 0 l 1,6,-1
 128 -128 l 1,7,-1
 0 -128 l 1,4,-1
-384 -256 m 1,8,-1
 -384 -128 l 1,9,-1
 -256 -128 l 1,10,-1
 -256 -256 l 1,11,-1
 -384 -256 l 1,8,-1
-512 -384 m 1,12,-1
 -512 -256 l 1,13,-1
 -384 -256 l 1,14,-1
 -384 -384 l 1,15,-1
 -512 -384 l 1,12,-1
-128 -384 m 1,16,-1
 -128 -128 l 1,17,-1
 0 -128 l 1,18,-1
 0 -384 l 1,19,-1
 -128 -384 l 1,16,-1
-384 -512 m 1,20,-1
 -384 -384 l 1,21,-1
 -128 -384 l 1,22,-1
 -128 -512 l 1,23,-1
 -384 -512 l 1,20,-1
EndSplineSet
EndChar

StartChar: uni0CCA
Encoding: 63 3274 74
Width: 640
Flags: W
LayerCount: 2
Fore
SplineSet
-128 0 m 1,0,-1
 -128 128 l 1,1,-1
 0 128 l 1,2,-1
 0 0 l 1,3,-1
 -128 0 l 1,0,-1
0 128 m 1,4,-1
 0 256 l 1,5,-1
 0 384 l 1,6,-1
 0 512 l 1,7,-1
 0 640 l 1,8,-1
 128 640 l 1,9,-1
 128 512 l 1,10,-1
 128 384 l 1,11,-1
 128 256 l 1,12,-1
 128 128 l 1,13,-1
 0 128 l 1,4,-1
128 640 m 1,14,-1
 128 768 l 1,15,-1
 257 768 l 1,16,-1
 384 768 l 1,17,-1
 384 640 l 1,18,-1
 257 640 l 1,19,-1
 128 640 l 1,14,-1
257 0 m 1,20,-1
 257 128 l 1,21,-1
 384 128 l 1,22,-1
 384 0 l 1,23,-1
 257 0 l 1,20,-1
384 128 m 1,24,-1
 384 256 l 1,25,-1
 384 384 l 1,26,-1
 384 512 l 1,27,-1
 384 640 l 1,28,-1
 512 640 l 1,29,-1
 512 512 l 1,30,-1
 512 384 l 1,31,-1
 512 256 l 1,32,-1
 512 128 l 1,33,-1
 384 128 l 1,24,-1
-512 896 m 1,34,-1
 -512 1024 l 1,35,-1
 -256 1024 l 1,36,-1
 -256 896 l 1,37,-1
 -512 896 l 1,34,-1
EndSplineSet
EndChar

StartChar: uni0CCB
Encoding: 64 3275 75
Width: 1152
Flags: W
LayerCount: 2
Fore
SplineSet
1024 512 m 1,0,-1
 896 512 l 1,1,-1
 896 640 l 1,2,-1
 1024 640 l 1,3,-1
 1024 512 l 1,0,-1
896 640 m 1,4,-1
 768 640 l 1,5,-1
 768 768 l 1,6,-1
 896 768 l 1,7,-1
 896 640 l 1,4,-1
768 0 m 1,8,-1
 640 0 l 1,9,-1
 640 640 l 1,10,-1
 768 640 l 1,11,-1
 768 0 l 1,8,-1
-128 0 m 1,12,-1
 -128 128 l 1,13,-1
 0 128 l 1,14,-1
 0 0 l 1,15,-1
 -128 0 l 1,12,-1
0 128 m 1,16,-1
 0 256 l 1,17,-1
 0 384 l 1,18,-1
 0 512 l 1,19,-1
 0 640 l 1,20,-1
 128 640 l 1,21,-1
 128 512 l 1,22,-1
 128 384 l 1,23,-1
 128 256 l 1,24,-1
 128 128 l 1,25,-1
 0 128 l 1,16,-1
128 640 m 1,26,-1
 128 768 l 1,27,-1
 257 768 l 1,28,-1
 384 768 l 1,29,-1
 384 640 l 1,30,-1
 257 640 l 1,31,-1
 128 640 l 1,26,-1
257 0 m 1,32,-1
 257 128 l 1,33,-1
 384 128 l 1,34,-1
 384 0 l 1,35,-1
 257 0 l 1,32,-1
384 128 m 1,36,-1
 384 256 l 1,37,-1
 384 384 l 1,38,-1
 384 512 l 1,39,-1
 384 640 l 1,40,-1
 512 640 l 1,41,-1
 512 512 l 1,42,-1
 512 384 l 1,43,-1
 512 256 l 1,44,-1
 512 128 l 1,45,-1
 384 128 l 1,36,-1
-512 896 m 1,46,-1
 -512 1024 l 1,47,-1
 -256 1024 l 1,48,-1
 -256 896 l 1,49,-1
 -512 896 l 1,46,-1
EndSplineSet
EndChar

StartChar: uni0CCC
Encoding: 65 3276 76
Width: 512
Flags: W
LayerCount: 2
Fore
SplineSet
128 384 m 1,0,-1
 128 512 l 1,1,-1
 256 512 l 1,2,-1
 256 384 l 1,3,-1
 128 384 l 1,0,-1
-128 768 m 1,4,-1
 -128 896 l 1,5,-1
 256 896 l 1,6,-1
 256 768 l 1,7,-1
 -128 768 l 1,4,-1
256 512 m 1,8,-1
 256 768 l 1,9,-1
 384 768 l 1,10,-1
 384 512 l 1,11,-1
 256 512 l 1,8,-1
EndSplineSet
EndChar

StartChar: uni0CCD
Encoding: 66 3277 77
Width: 256
Flags: W
LayerCount: 2
Fore
SplineSet
-128 768 m 1,0,-1
 -128 896 l 1,1,-1
 0 896 l 1,2,-1
 0 768 l 1,3,-1
 -128 768 l 1,0,-1
0 512 m 1,4,-1
 0 768 l 1,5,-1
 128 768 l 1,6,-1
 128 512 l 1,7,-1
 0 512 l 1,4,-1
EndSplineSet
EndChar

StartChar: uni0CD5
Encoding: 67 3285 78
Width: 512
Flags: W
LayerCount: 2
Fore
SplineSet
384 512 m 1,0,-1
 256 512 l 1,1,-1
 256 640 l 1,2,-1
 384 640 l 1,3,-1
 384 512 l 1,0,-1
256 640 m 1,4,-1
 128 640 l 1,5,-1
 128 768 l 1,6,-1
 256 768 l 1,7,-1
 256 640 l 1,4,-1
128 0 m 1,8,-1
 0 0 l 1,9,-1
 0 640 l 1,10,-1
 128 640 l 1,11,-1
 128 0 l 1,8,-1
EndSplineSet
EndChar

StartChar: uni0CD6
Encoding: 68 3286 79
Width: 128
Flags: W
LayerCount: 2
Fore
SplineSet
0 -128 m 1,0,-1
 0 0 l 1,1,-1
 128 0 l 1,2,-1
 128 -128 l 1,3,-1
 0 -128 l 1,0,-1
-384 -256 m 1,4,-1
 -384 -128 l 1,5,-1
 -256 -128 l 1,6,-1
 -256 -256 l 1,7,-1
 -384 -256 l 1,4,-1
-512 -384 m 1,8,-1
 -512 -256 l 1,9,-1
 -384 -256 l 1,10,-1
 -384 -384 l 1,11,-1
 -512 -384 l 1,8,-1
-128 -384 m 1,12,-1
 -128 -128 l 1,13,-1
 0 -128 l 1,14,-1
 0 -384 l 1,15,-1
 -128 -384 l 1,12,-1
-384 -512 m 1,16,-1
 -384 -384 l 1,17,-1
 -128 -384 l 1,18,-1
 -128 -512 l 1,19,-1
 -384 -512 l 1,16,-1
EndSplineSet
EndChar

StartChar: uni0C83
Encoding: 3 3203 80
Width: 512
Flags: W
LayerCount: 2
Fore
SplineSet
128 0 m 5,0,-1
 128 128 l 5,1,-1
 256 128 l 5,2,-1
 256 0 l 5,3,-1
 128 0 l 5,0,-1
256 128 m 5,4,-1
 256 256 l 5,5,-1
 384 256 l 5,6,-1
 384 128 l 5,7,-1
 256 128 l 5,4,-1
0 128 m 5,8,-1
 0 256 l 5,9,-1
 128 256 l 5,10,-1
 128 128 l 5,11,-1
 0 128 l 5,8,-1
128 256 m 5,12,-1
 128 384 l 5,13,-1
 256 384 l 5,14,-1
 256 256 l 5,15,-1
 128 256 l 5,12,-1
128 512 m 1,16,-1
 128 640 l 1,17,-1
 256 640 l 1,18,-1
 256 512 l 1,19,-1
 128 512 l 1,16,-1
256 640 m 1,20,-1
 256 768 l 1,21,-1
 384 768 l 1,22,-1
 384 640 l 1,23,-1
 256 640 l 1,20,-1
0 640 m 1,24,-1
 0 768 l 1,25,-1
 128 768 l 1,26,-1
 128 640 l 1,27,-1
 0 640 l 1,24,-1
128 768 m 1,28,-1
 128 896 l 1,29,-1
 256 896 l 1,30,-1
 256 768 l 1,31,-1
 128 768 l 1,28,-1
EndSplineSet
EndChar

StartChar: uni0C82
Encoding: 2 3202 81
Width: 896
Flags: W
LayerCount: 2
Fore
SplineSet
0 256 m 5,0,-1
 0 384 l 5,1,-1
 0 512 l 5,2,-1
 127 512 l 5,3,-1
 127 384 l 5,4,-1
 127 256 l 5,5,-1
 0 256 l 5,0,-1
127 128 m 5,6,-1
 127 256 l 5,7,-1
 256 256 l 5,8,-1
 256 128 l 5,9,-1
 127 128 l 5,6,-1
127 512 m 5,10,-1
 127 640 l 5,11,-1
 256 640 l 5,12,-1
 256 512 l 5,13,-1
 127 512 l 5,10,-1
256 0 m 5,14,-1
 256 128 l 5,15,-1
 384 128 l 5,16,-1
 512 128 l 5,17,-1
 512 0 l 5,18,-1
 384 0 l 5,19,-1
 256 0 l 5,14,-1
256 640 m 5,20,-1
 256 768 l 5,21,-1
 384 768 l 5,22,-1
 512 768 l 5,23,-1
 512 640 l 5,24,-1
 384 640 l 5,25,-1
 256 640 l 5,20,-1
512 128 m 5,26,-1
 512 256 l 5,27,-1
 640 256 l 5,28,-1
 640 128 l 5,29,-1
 512 128 l 5,26,-1
512 512 m 5,30,-1
 512 640 l 5,31,-1
 640 640 l 5,32,-1
 640 512 l 5,33,-1
 512 512 l 5,30,-1
640 256 m 5,34,-1
 640 384 l 5,35,-1
 640 512 l 5,36,-1
 767 512 l 5,37,-1
 767 384 l 5,38,-1
 767 256 l 5,39,-1
 640 256 l 5,34,-1
EndSplineSet
EndChar

StartChar: NameMe.82
Encoding: 82 -1 82
Width: 896
VWidth: 1280
Flags: W
LayerCount: 2
Fore
SplineSet
0 128 m 1,0,-1
 128 128 l 1,1,-1
 128 256 l 1,2,-1
 128 384 l 1,3,-1
 0 384 l 1,4,-1
 0 256 l 1,5,-1
 0 128 l 1,0,-1
0 512 m 1,6,-1
 128 512 l 1,7,-1
 128 640 l 1,8,-1
 128 768 l 1,9,-1
 0 768 l 1,10,-1
 0 640 l 1,11,-1
 0 512 l 1,6,-1
128 0 m 1,12,-1
 256 0 l 1,13,-1
 256 128 l 1,14,-1
 128 128 l 1,15,-1
 128 0 l 1,12,-1
128 384 m 1,16,-1
 256 384 l 1,17,-1
 384 384 l 1,18,-1
 384 512 l 1,19,-1
 256 512 l 1,20,-1
 128 512 l 1,21,-1
 128 384 l 1,16,-1
128 768 m 1,22,-1
 256 768 l 1,23,-1
 384 768 l 1,24,-1
 512 768 l 1,25,-1
 640 768 l 1,26,-1
 768 768 l 1,27,-1
 768 896 l 1,28,-1
 640 896 l 1,29,-1
 512 896 l 1,30,-1
 384 896 l 1,31,-1
 256 896 l 1,32,-1
 128 896 l 1,33,-1
 128 768 l 1,22,-1
EndSplineSet
EndChar
